<?xml version="1.0" encoding="UTF-8"?>
<svg version="1.1" xmlns="http://www.w3.org/2000/svg" width="1280" height="720">
<path d="M0 0 C65.01 0 130.02 0 197 0 C197 24.75 197 49.5 197 75 C143.54 75.495 143.54 75.495 89 76 C89 90.52 89 105.04 89 120 C121.67 120.33 154.34 120.66 188 121 C188.33 133.54 188.66 146.08 189 159 C191.97 155.37 194.94 151.74 198 148 C217.46130379 124.76262233 245.2998505 111.34183878 275.36230469 108.19848633 C309.45046722 105.63335525 343.87560558 110.77363735 371 133 C371.90105469 133.73734375 372.80210937 134.4746875 373.73046875 135.234375 C387.35670637 146.99637418 397.37210617 161.6854846 403.95703125 178.40625 C404.86939122 180.67519015 405.870465 182.83292832 407 185 C407.25652344 184.2471875 407.51304687 183.494375 407.77734375 182.71875 C413.5769481 166.6282652 422.45073679 149.6145259 435.9296875 138.69921875 C438.06970302 136.98735344 438.06970302 136.98735344 440.1953125 134.89453125 C461.61293583 114.36047324 489.11617631 108.0645522 518.00390625 108.66015625 C533.08667834 109.22608748 544.93231184 113.66824408 558 121 C558.97453125 121.53496094 559.9490625 122.06992187 560.953125 122.62109375 C561.62859375 123.07613281 562.3040625 123.53117187 563 124 C563 124.66 563 125.32 563 126 C563.53625 126.20625 564.0725 126.4125 564.625 126.625 C567 128 567 128 573 134 C573.33 89.78 573.66 45.56 574 0 C661.12 0 748.24 0 838 0 C838 24.75 838 49.5 838 75 C803.02 75.33 768.04 75.66 732 76 C732 90.52 732 105.04 732 120 C741.25224609 119.98259766 741.25224609 119.98259766 750.69140625 119.96484375 C771.05151982 119.93235853 791.4114383 119.9432689 811.77154541 119.97665405 C824.11815759 119.99583631 836.46443829 120.00010561 848.81103516 119.96923828 C859.57268399 119.94237129 870.33390343 119.94351502 881.09553623 119.97825909 C886.79362452 119.99567817 892.49094362 119.99909457 898.18899536 119.96896362 C903.55409094 119.94103599 908.91782244 119.95060643 914.28284264 119.98873711 C916.25002441 119.99614572 918.2173127 119.98994206 920.18439674 119.96898079 C935.04067028 119.82202133 935.04067028 119.82202133 939.90325928 122.7454834 C941.92514188 124.73020843 943.46191519 126.63088853 945 129 C945.8146875 129.9590625 946.629375 130.918125 947.46875 131.90625 C948.47421875 133.19015625 948.47421875 133.19015625 949.5 134.5 C952.82583858 138.64301198 956.30402857 142.41671282 960.109375 146.1171875 C962.56462707 148.5622939 964.81027224 151.15668711 967.0703125 153.78125 C969.42738476 156.49140596 971.83405192 159.15495711 974.25 161.8125 C975.08015625 162.72644531 975.9103125 163.64039063 976.765625 164.58203125 C978.47531846 166.43220652 980.19895405 168.23988692 982 170 C985.37161357 168.87612881 985.72035171 168.29600597 987.5625 165.4375 C988.81640625 163.49609375 988.81640625 163.49609375 990 162 C990.66 162 991.32 162 992 162 C992.37705078 161.16275391 992.37705078 161.16275391 992.76171875 160.30859375 C994.19679325 157.63310785 995.90764841 155.4262642 997.8125 153.0625 C998.47894531 152.22847656 999.14539062 151.39445313 999.83203125 150.53515625 C1002.1020368 147.88068129 1004.51750881 145.45579774 1007 143 C1017.0986812 132.48756909 1017.0986812 132.48756909 1026 121 C1029.14003713 120.71400654 1032.08188693 120.62215839 1035.22314453 120.65942383 C1036.65735748 120.65876671 1036.65735748 120.65876671 1038.12054443 120.65809631 C1041.29150579 120.66019194 1044.46194313 120.68355955 1047.6328125 120.70703125 C1049.82713533 120.71262445 1052.02146189 120.71689585 1054.21578979 120.71989441 C1059.99943329 120.73136489 1065.78285182 120.76085107 1071.56640625 120.79400635 C1077.46481279 120.82465977 1083.36325557 120.83838963 1089.26171875 120.85351562 C1100.84124484 120.88571861 1112.42060373 120.93694157 1124 121 C1122.23453093 124.81053732 1119.9811997 127.0188003 1117 130 C1115.81653322 131.48678092 1114.65097922 132.98792926 1113.5 134.5 C1110.8692445 137.94544108 1108.06671522 140.93328478 1105 144 C1103.65293856 145.65559084 1102.32095141 147.32350278 1101 149 C1098.17389526 152.57481159 1095.30865227 155.85678034 1092 159 C1087.6824528 163.12650529 1083.66343439 167.32679416 1079.9375 172 C1075.36608064 177.71227969 1070.39524319 182.99079585 1065.31616211 188.25390625 C1062.34152449 191.36614668 1059.61130923 194.43058722 1057.171875 197.984375 C1056.45515625 198.97953125 1055.7384375 199.9746875 1055 201 C1054.34 201 1053.68 201 1053 201 C1053 201.66 1053 202.32 1053 203 C1051.37211227 204.7045636 1049.69668928 206.36390677 1048 208 C1039.43319565 217.03417853 1039.43319565 217.03417853 1032 227 C1033.22515636 228.56564646 1034.45533419 230.12736399 1035.6875 231.6875 C1036.37199219 232.55761719 1037.05648438 233.42773438 1037.76171875 234.32421875 C1040.04239869 237.05068604 1042.46810071 239.50675566 1045 242 C1051.26651769 248.62731719 1057.25880827 255.37944845 1062.9296875 262.52734375 C1065.15173805 265.18122676 1067.53811109 267.56786201 1070 270 C1071.84520756 271.9698121 1073.6790527 273.94567949 1075.5 275.9375 C1076.19029297 276.68676758 1076.19029297 276.68676758 1076.89453125 277.45117188 C1086 287.39023988 1086 287.39023988 1086 290 C1086.57105469 290.22300781 1087.14210938 290.44601562 1087.73046875 290.67578125 C1090.6725989 292.39244583 1092.22636037 294.50108573 1094.3125 297.1875 C1097.47236428 301.15930977 1100.69432204 304.8142564 1104.33203125 308.34375 C1108.36769235 312.35105751 1111.9800984 316.75487051 1115.59375 321.140625 C1116.04322998 321.68501221 1116.49270996 322.22939941 1116.95581055 322.7902832 C1117.84879135 323.87449078 1118.7383776 324.96150462 1119.62426758 326.05151367 C1121.95196152 328.95144447 1121.95196152 328.95144447 1125 331 C1125 331.99 1125 332.98 1125 334 C1091.67 334 1058.34 334 1024 334 C1024 333.34 1024 332.68 1024 332 C1023.40832031 331.75507812 1022.81664062 331.51015625 1022.20703125 331.2578125 C1019.6072888 329.77618937 1018.46101435 328.28045625 1016.6875 325.875 C1012.91376403 320.99175738 1008.81727615 316.53038329 1004.5625 312.0625 C999.46639964 306.69762327 994.62068775 301.27239338 990.0078125 295.484375 C986.81304789 291.53131996 983.41216395 287.76546703 980 284 C976.7369879 285.0876707 976.12160072 285.75066713 974 288.3125 C970.91466842 291.95345273 967.73771636 295.49467647 964.5 299 C957.86967173 306.20813951 951.47219231 313.58685133 945.16992188 321.08178711 C944.29543335 322.12000075 943.40965792 323.14882558 942.51217276 324.16722536 C940.95572767 325.97702328 940.95572767 325.97702328 939.70111412 328.0427165 C937.2107914 331.605754 935.30170798 333.68187311 930.99546349 334.7342844 C927.14839656 335.0108381 923.34338255 335.0289777 919.4912262 334.96203613 C918.00024478 334.96552673 916.50926816 334.97253509 915.01831764 334.98274946 C910.92893517 335.00061594 906.84123276 334.96867396 902.75206435 334.92852497 C898.33974116 334.89395296 893.92751148 334.9056699 889.51509094 334.91174316 C881.87295167 334.91593653 874.23135912 334.89085292 866.58935738 334.84584045 C855.54042584 334.78080308 844.49175847 334.75998683 833.44265627 334.74993652 C815.51606437 334.73243069 797.58976381 334.67920004 779.66333008 334.60351562 C762.25025896 334.53007508 744.837267 334.47345183 727.42407227 334.43945312 C726.35059292 334.43735134 725.27711358 334.43524955 724.17110456 334.43308407 C718.78573385 334.42264371 713.40036257 334.41253406 708.01499093 334.40258884 C663.34312355 334.31966503 618.67158138 334.17817361 574 334 C573.67 327.73 573.34 321.46 573 315 C571.411875 316.815 569.82375 318.63 568.1875 320.5 C555.67596293 334.31606637 539.239505 343.77911501 520.46191406 345.28344727 C516.82374017 345.40020796 513.20224933 345.40986721 509.5625 345.375 C508.35529297 345.38660156 507.14808594 345.39820313 505.90429688 345.41015625 C480.57617227 345.32884606 456.35846495 334.6907056 438.125 317.25 C437.42375 316.5075 436.7225 315.765 436 315 C435.401875 314.443125 434.80375 313.88625 434.1875 313.3125 C433 312 433 312 433 310 C432.38125 309.773125 431.7625 309.54625 431.125 309.3125 C428.38589791 307.62070165 427.94975528 306.00755839 427 303 C426.34 303 425.68 303 425 303 C423.85839844 301.56982422 423.85839844 301.56982422 422.609375 299.5546875 C422.14958252 298.81331543 421.68979004 298.07194336 421.21606445 297.30810547 C420.73226318 296.50518066 420.24846191 295.70225586 419.75 294.875 C419.25781982 294.06562988 418.76563965 293.25625977 418.25854492 292.42236328 C414.14423507 285.52019653 410.85983065 278.5055471 408 271 C407.72438232 271.52207031 407.44876465 272.04414063 407.16479492 272.58203125 C390.23280234 304.47044276 390.23280234 304.47044276 379.8046875 312.57421875 C377.94776103 314.04127105 376.46347742 315.62451368 374.875 317.375 C355.70086837 336.81119265 325.35433367 343.99362926 299 345 C297.59621094 345.061875 297.59621094 345.061875 296.1640625 345.125 C261.55291512 345.90059994 229.94018211 334.32596175 204.72802734 310.68066406 C193.56639879 299.82496317 184.60140924 286.55837968 179 272 C178.66484375 271.17628906 178.3296875 270.35257812 177.984375 269.50390625 C172.53461882 255.4931525 170.80186922 241.16852305 170.8125 226.25 C170.81258057 225.19248535 170.81266113 224.1349707 170.81274414 223.04541016 C170.86786196 215.4925288 171.46742727 208.40557044 173 201 C173.33 199.02 173.66 197.04 174 195 C145.95 195 117.9 195 89 195 C89 240.87 89 286.74 89 334 C59.63 334 30.26 334 0 334 C0 223.78 0 113.56 0 0 Z M838 125 C838 147.77 838 170.54 838 194 C802.69 194 767.38 194 731 194 C731 215.12 731 236.24 731 258 C766.31 258 801.62 258 838 258 C838 281.43 838 304.86 838 329 C842.30781524 326.84609238 844.52731411 324.31412809 847.5 320.6875 C852.15461334 315.12482825 856.93716283 309.7272757 861.90234375 304.44018555 C867.901752 298.89107335 867.901752 298.89107335 871 292 C871.55171875 291.79375 872.1034375 291.5875 872.671875 291.375 C875.86711063 289.48788097 877.94330476 286.84313599 880.25 284 C880.70890625 283.4534375 881.1678125 282.906875 881.640625 282.34375 C884.19851668 279.53932281 884.19851668 279.53932281 885 276 C885.56976562 275.76667969 886.13953125 275.53335938 886.7265625 275.29296875 C889.54773872 273.68848537 891.24239143 271.75564631 893.375 269.3125 C894.54482422 267.97638672 894.54482422 267.97638672 895.73828125 266.61328125 C896.48464844 265.75089844 897.23101563 264.88851562 898 264 C898.94939453 262.93845703 898.94939453 262.93845703 899.91796875 261.85546875 C902.95061734 258.87490023 902.95061734 258.87490023 904 255 C904.99 254.67 905.98 254.34 907 254 C908.47798317 252.34442971 909.88582353 250.62553414 911.25 248.875 C914.4188337 244.90113896 917.63976208 241.22799888 921.29296875 237.703125 C924.37377885 234.62936481 927.16668001 231.30005952 930 228 C925.79476224 222.08966819 921.16350414 216.83344185 916.125 211.625 C910.88264599 206.14969241 905.90392525 200.68219524 901.3828125 194.58984375 C900.92648437 194.06519531 900.47015625 193.54054688 900 193 C899.34 193 898.68 193 898 193 C897.7525 192.4328125 897.505 191.865625 897.25 191.28125 C895.79612013 188.62791923 894.06463465 186.71210855 892 184.5 C887.6081575 179.71855857 883.46545972 174.78697603 879.359375 169.76171875 C877.02417923 167.02830251 874.55724683 164.52477386 872 162 C870.6130502 160.49005653 869.23808227 158.969024 867.875 157.4375 C864.91252756 154.12071192 861.92413447 150.83263972 858.89941406 147.57250977 C854.0536358 142.34376962 849.46833661 136.99376844 845.0703125 131.375 C842.7087975 128.52358592 842.7087975 128.52358592 838 125 Z M261.75 173.3125 C256.86360563 179.46121291 254.16142471 185.43501351 252 193 C279.06 193 306.12 193 334 193 C332.35 188.38 330.7 183.76 329 179 C328.34 179 327.68 179 327 179 C326.7525 178.278125 326.505 177.55625 326.25 176.8125 C323.1023361 169.73025623 317.70452241 165.9263865 310.69140625 163.0546875 C293.47932073 157.075447 274.49722874 159.37122704 261.75 173.3125 Z M500 180 C499.40574219 180.47824219 498.81148437 180.95648438 498.19921875 181.44921875 C488.63691671 189.86658883 482.79072638 205.26385705 481.77685547 217.74755859 C480.77456655 237.14294887 483.53808724 252.24824383 495.875 267.875 C503.00858633 275.61089441 512.81644472 280.65678776 523.31640625 281.3828125 C534.62934214 281.81861237 544.95756164 280.43489377 554 273 C565.95469109 261.6272817 571.38232816 246.53087371 572.125 230.26171875 C572.27652919 222.95990579 571.4022749 216.15160197 570 209 C569.90203125 208.26523437 569.8040625 207.53046875 569.703125 206.7734375 C568.13321009 196.79326412 561.50057961 184.36836954 553.58984375 178.0859375 C536.41159919 167.00483129 515.86793259 166.09441302 500 180 Z M249 243 C250.38333507 256.83335072 254.48733429 267.17567867 264.8125 276.8125 C276.23981552 286.13015727 288.63670188 287.80176576 302.8984375 286.53515625 C311.46860645 285.5581333 319.28329523 282.69231007 325 276 C326.46425533 273.31520124 326.46425533 273.31520124 327 271 C327.66 271 328.32 271 329 271 C329.33 270.34 329.66 269.68 330 269 C355.41 268.67 380.82 268.34 407 268 C405.35 259.75 403.7 251.5 402 243 C351.51 243 301.02 243 249 243 Z " fill="#472F90" transform="translate(26,186)"/>
<path d="M0 0 C61.05 0 122.1 0 185 0 C185 24.75 185 49.5 185 75 C150.02 75.33 115.04 75.66 79 76 C79 90.52 79 105.04 79 120 C85.16816406 119.98839844 91.33632813 119.97679687 97.69140625 119.96484375 C118.05151982 119.93235853 138.4114383 119.9432689 158.77154541 119.97665405 C171.11815759 119.99583631 183.46443829 120.00010561 195.81103516 119.96923828 C206.57268399 119.94237129 217.33390343 119.94351502 228.09553623 119.97825909 C233.79362452 119.99567817 239.49094362 119.99909457 245.18899536 119.96896362 C250.55409094 119.94103599 255.91782244 119.95060643 261.28284264 119.98873711 C263.25002441 119.99614572 265.2173127 119.98994206 267.18439674 119.96898079 C282.04067028 119.82202133 282.04067028 119.82202133 286.90325928 122.7454834 C288.92514188 124.73020843 290.46191519 126.63088853 292 129 C292.8146875 129.9590625 293.629375 130.918125 294.46875 131.90625 C295.1390625 132.7621875 295.809375 133.618125 296.5 134.5 C299.82583858 138.64301198 303.30402857 142.41671282 307.109375 146.1171875 C309.56462707 148.5622939 311.81027224 151.15668711 314.0703125 153.78125 C316.42738476 156.49140596 318.83405192 159.15495711 321.25 161.8125 C322.08015625 162.72644531 322.9103125 163.64039063 323.765625 164.58203125 C325.47531846 166.43220652 327.19895405 168.23988692 329 170 C332.37161357 168.87612881 332.72035171 168.29600597 334.5625 165.4375 C335.81640625 163.49609375 335.81640625 163.49609375 337 162 C337.66 162 338.32 162 339 162 C339.25136719 161.44183594 339.50273438 160.88367188 339.76171875 160.30859375 C341.19679325 157.63310785 342.90764841 155.4262642 344.8125 153.0625 C345.47894531 152.22847656 346.14539062 151.39445313 346.83203125 150.53515625 C349.1020368 147.88068129 351.51750881 145.45579774 354 143 C364.0986812 132.48756909 364.0986812 132.48756909 373 121 C376.14003713 120.71400654 379.08188693 120.62215839 382.22314453 120.65942383 C383.65735748 120.65876671 383.65735748 120.65876671 385.12054443 120.65809631 C388.29150579 120.66019194 391.46194313 120.68355955 394.6328125 120.70703125 C396.82713533 120.71262445 399.02146189 120.71689585 401.21578979 120.71989441 C406.99943329 120.73136489 412.78285182 120.76085107 418.56640625 120.79400635 C424.46481279 120.82465977 430.36325557 120.83838963 436.26171875 120.85351562 C447.84124484 120.88571861 459.42060373 120.93694157 471 121 C469.23453093 124.81053732 466.9811997 127.0188003 464 130 C462.81653322 131.48678092 461.65097922 132.98792926 460.5 134.5 C457.8692445 137.94544108 455.06671522 140.93328478 452 144 C450.65293856 145.65559084 449.32095141 147.32350278 448 149 C445.17389526 152.57481159 442.30865227 155.85678034 439 159 C434.6824528 163.12650529 430.66343439 167.32679416 426.9375 172 C422.36608064 177.71227969 417.39524319 182.99079585 412.31616211 188.25390625 C409.34152449 191.36614668 406.61130923 194.43058722 404.171875 197.984375 C403.45515625 198.97953125 402.7384375 199.9746875 402 201 C401.34 201 400.68 201 400 201 C400 201.66 400 202.32 400 203 C398.37211227 204.7045636 396.69668928 206.36390677 395 208 C386.43319565 217.03417853 386.43319565 217.03417853 379 227 C380.22515636 228.56564646 381.45533419 230.12736399 382.6875 231.6875 C383.37199219 232.55761719 384.05648438 233.42773438 384.76171875 234.32421875 C387.04239869 237.05068604 389.46810071 239.50675566 392 242 C398.26651769 248.62731719 404.25880827 255.37944845 409.9296875 262.52734375 C412.15173805 265.18122676 414.53811109 267.56786201 417 270 C418.84520756 271.9698121 420.6790527 273.94567949 422.5 275.9375 C423.19029297 276.68676758 423.19029297 276.68676758 423.89453125 277.45117188 C433 287.39023988 433 287.39023988 433 290 C433.57105469 290.22300781 434.14210938 290.44601562 434.73046875 290.67578125 C437.6725989 292.39244583 439.22636037 294.50108573 441.3125 297.1875 C444.47236428 301.15930977 447.69432204 304.8142564 451.33203125 308.34375 C455.36769235 312.35105751 458.9800984 316.75487051 462.59375 321.140625 C463.04322998 321.68501221 463.49270996 322.22939941 463.95581055 322.7902832 C464.84879135 323.87449078 465.7383776 324.96150462 466.62426758 326.05151367 C468.95196152 328.95144447 468.95196152 328.95144447 472 331 C472 331.99 472 332.98 472 334 C438.67 334 405.34 334 371 334 C371 333.34 371 332.68 371 332 C370.40832031 331.75507812 369.81664062 331.51015625 369.20703125 331.2578125 C366.6072888 329.77618937 365.46101435 328.28045625 363.6875 325.875 C359.91376403 320.99175738 355.81727615 316.53038329 351.5625 312.0625 C346.46639964 306.69762327 341.62068775 301.27239338 337.0078125 295.484375 C333.81304789 291.53131996 330.41216395 287.76546703 327 284 C323.7369879 285.0876707 323.12160072 285.75066713 321 288.3125 C317.91466842 291.95345273 314.73771636 295.49467647 311.5 299 C304.86967173 306.20813951 298.47219231 313.58685133 292.16992188 321.08178711 C291.29707318 322.11805391 290.41522857 323.14682053 289.52388817 324.16722536 C287.96091433 325.99031866 287.96091433 325.99031866 286.59567541 328.0427165 C284.25059141 331.22089685 282.38622336 333.59059882 278.51372921 334.7342844 C275.47965121 335.0088656 272.53634143 335.02820362 269.4903717 334.96203613 C268.33968704 334.96888428 267.18900238 334.97573242 266.00344849 334.98278809 C262.81576986 334.99370292 259.63070802 334.96871509 256.44333847 334.92858183 C252.95139217 334.89357764 249.4595411 334.90534323 245.96746731 334.91112518 C239.19267257 334.91537392 232.41872796 334.87848234 225.64415151 334.82711455 C217.80593783 334.76946362 209.96823314 334.76315406 202.12976074 334.75683594 C181.4405393 334.71485069 160.75150685 334.60316145 140.0625 334.5 C93.841875 334.335 47.62125 334.17 0 334 C0 223.78 0 113.56 0 0 Z M185 125 C185 147.77 185 170.54 185 194 C149.69 194 114.38 194 78 194 C78 215.12 78 236.24 78 258 C113.31 258 148.62 258 185 258 C185 281.43 185 304.86 185 329 C189.30781524 326.84609238 191.52731411 324.31412809 194.5 320.6875 C199.15461334 315.12482825 203.93716283 309.7272757 208.90234375 304.44018555 C214.901752 298.89107335 214.901752 298.89107335 218 292 C218.55171875 291.79375 219.1034375 291.5875 219.671875 291.375 C222.86711063 289.48788097 224.94330476 286.84313599 227.25 284 C227.70890625 283.4534375 228.1678125 282.906875 228.640625 282.34375 C231.19851668 279.53932281 231.19851668 279.53932281 232 276 C232.56976562 275.76667969 233.13953125 275.53335938 233.7265625 275.29296875 C236.54773872 273.68848537 238.24239143 271.75564631 240.375 269.3125 C241.54482422 267.97638672 241.54482422 267.97638672 242.73828125 266.61328125 C243.48464844 265.75089844 244.23101563 264.88851562 245 264 C245.94939453 262.93845703 245.94939453 262.93845703 246.91796875 261.85546875 C249.95061734 258.87490023 249.95061734 258.87490023 251 255 C251.99 254.67 252.98 254.34 254 254 C255.47798317 252.34442971 256.88582353 250.62553414 258.25 248.875 C261.4188337 244.90113896 264.63976208 241.22799888 268.29296875 237.703125 C271.37377885 234.62936481 274.16668001 231.30005952 277 228 C272.79476224 222.08966819 268.16350414 216.83344185 263.125 211.625 C257.88264599 206.14969241 252.90392525 200.68219524 248.3828125 194.58984375 C247.92648437 194.06519531 247.47015625 193.54054688 247 193 C246.34 193 245.68 193 245 193 C244.7525 192.4328125 244.505 191.865625 244.25 191.28125 C242.79612013 188.62791923 241.06463465 186.71210855 239 184.5 C234.6081575 179.71855857 230.46545972 174.78697603 226.359375 169.76171875 C224.02417923 167.02830251 221.55724683 164.52477386 219 162 C217.6130502 160.49005653 216.23808227 158.969024 214.875 157.4375 C211.91252756 154.12071192 208.92413447 150.83263972 205.89941406 147.57250977 C201.0536358 142.34376962 196.46833661 136.99376844 192.0703125 131.375 C189.7087975 128.52358592 189.7087975 128.52358592 185 125 Z " fill="#F47920" transform="translate(679,186)"/>
<path d="M0 0 C7.0075609 5.57252975 12.84261056 13.19177769 14.61328125 22.078125 C15.99590915 35.02481122 15.28697657 46.22622856 7.4765625 57.03515625 C1.12070535 64.68060761 -6.57111301 69.96518551 -16.38671875 72.078125 C-30.35634982 73.36138181 -41.60072194 72.09683183 -53.26171875 63.828125 C-60.2355206 58.00398976 -65.56197781 49.77414066 -66.68847656 40.62817383 C-66.82420106 37.97878144 -66.85336604 35.35576769 -66.82421875 32.703125 C-66.8195459 31.7757251 -66.81487305 30.8483252 -66.81005859 29.89282227 C-66.66666097 23.27496358 -65.75491255 17.86797639 -62.38671875 12.078125 C-61.7154265 10.74711451 -61.04742645 9.41442121 -60.38671875 8.078125 C-59.72671875 8.078125 -59.06671875 8.078125 -58.38671875 8.078125 C-58.14050781 7.4903125 -57.89429688 6.9025 -57.640625 6.296875 C-53.86018574 -0.39250038 -45.44548656 -4.52601585 -38.38671875 -6.921875 C-24.71851736 -10.37926152 -11.53633626 -7.76703827 0 0 Z M-50.38671875 11.078125 C-57.21900762 19.75321951 -58.41311386 29.28148783 -57.38671875 40.078125 C-55.40123749 48.53128173 -50.84839628 54.89023938 -43.828125 59.90625 C-34.82280914 65.13593139 -25.39518888 65.78508487 -15.35546875 63.33984375 C-5.99830977 59.91546177 -0.67123879 53.89919567 3.61328125 45.078125 C7.08520612 36.18429006 6.02251655 25.98820551 2.55078125 17.265625 C1.92344765 15.86138003 1.28480733 14.46178107 0.61328125 13.078125 C-0.04671875 13.078125 -0.70671875 13.078125 -1.38671875 13.078125 C-1.65355469 12.48128906 -1.92039062 11.88445312 -2.1953125 11.26953125 C-4.8412747 6.40269585 -9.40733094 3.18659798 -14.51171875 1.203125 C-28.1838838 -2.68657102 -40.8465652 0.64557401 -50.38671875 11.078125 Z " fill="#F47920" transform="translate(1255.38671875,453.921875)"/>
<path d="M0 0 C25 0 25 0 31 3 C34.35477123 7.69667972 34.78429647 12.40672778 34 18 C32.61019502 20.96912882 31.30342972 22.69657028 29 25 C29.46019531 25.82113281 29.92039062 26.64226562 30.39453125 27.48828125 C32.18433157 31.40319728 32.97668243 34.9730898 33.6875 39.1875 C33.81705078 39.89841797 33.94660156 40.60933594 34.08007812 41.34179688 C34.60038685 44.26818935 35 47.02219033 35 50 C32.03 50 29.06 50 26 50 C22.77986586 44.87705933 22.24141298 39.78550259 21.52734375 33.828125 C21.25263176 30.8756253 21.25263176 30.8756253 19 29 C15.7 28.67 12.4 28.34 9 28 C9 35.26 9 42.52 9 50 C6.03 50 3.06 50 0 50 C0 33.5 0 17 0 0 Z M9 8 C9 11.96 9 15.92 9 20 C16.31093474 20.44889074 16.31093474 20.44889074 23 18 C24.36078035 15.47627099 24.36078035 15.47627099 25 13 C23.81768639 10.25933726 23.81768639 10.25933726 21 8 C16.90758569 7.53742657 13.13859237 7.7750765 9 8 Z " fill="#F47920" transform="translate(1213,461)"/>
</svg>
