<?xml version="1.0" encoding="UTF-8"?>
<svg version="1.1" xmlns="http://www.w3.org/2000/svg" width="305" height="120">
<path d="M0 0 C0.99 0 1.98 0 3 0 C1.55797524 4.15151338 -0.5010438 7.29978445 -3.125 10.8125 C-3.84945312 11.78832031 -4.57390625 12.76414062 -5.3203125 13.76953125 C-6.15175781 14.87361328 -6.15175781 14.87361328 -7 16 C-4.03595495 13.19195732 -1.55500981 10.81684226 0 7 C0.66 7 1.32 7 2 7 C2.66 5.68 3.32 4.36 4 3 C4.66 3.33 5.32 3.66 6 4 C5.38801624 7.43950364 4.07941153 9.51564485 1.9375 12.25 C1.38964844 12.95640625 0.84179688 13.6628125 0.27734375 14.390625 C-0.14417969 14.92171875 -0.56570312 15.4528125 -1 16 C0.0988353 14.93346808 0.0988353 14.93346808 1.33984375 13.37109375 C1.86707031 12.73300781 2.39429688 12.09492188 2.9375 11.4375 C3.46214844 10.79683594 3.98679688 10.15617188 4.52734375 9.49609375 C5.25630859 8.75552734 5.25630859 8.75552734 6 8 C6.66 8 7.32 8 8 8 C7.67 9.65 7.34 11.3 7 13 C7.99 13 8.98 13 10 13 C10.1953125 15.05078125 10.390625 17.1015625 10.5859375 19.15234375 C10.79089844 20.06693359 10.79089844 20.06693359 11 21 C11.66 21.33 12.32 21.66 13 22 C11.55797524 26.15151338 9.4989562 29.29978445 6.875 32.8125 C6.15054688 33.78832031 5.42609375 34.76414063 4.6796875 35.76953125 C4.12539063 36.50558594 3.57109375 37.24164063 3 38 C3.71696045 38.2671582 4.4339209 38.53431641 5.17260742 38.80957031 C10.18039141 40.9180199 14.68708686 43.91799499 19.3125 46.75 C20.31990234 47.3584375 21.32730469 47.966875 22.36523438 48.59375 C28.14762993 52.11969282 33.68368331 55.80122445 39 60 C38.67 61.98 38.34 63.96 38 66 C37.01 66 36.02 66 35 66 C34.505 67.485 34.505 67.485 34 69 C33.01 69 32.02 69 31 69 C30.67 69.33 30.34 69.66 30 70 C28.68 70 27.36 70 26 70 C25.505 71.485 25.505 71.485 25 73 C24.01 73 23.02 73 22 73 C19.42870003 73.01479515 19.42870003 73.01479515 17 74 C15.48831243 76.58006925 15.48831243 76.58006925 14.5703125 79.87890625 C14.17078369 81.10383789 13.77125488 82.32876953 13.35961914 83.59082031 C13.15789093 84.24038696 12.95616272 84.88995361 12.74832153 85.5592041 C11.7107902 88.89373074 10.60324026 92.20497768 9.50390625 95.51953125 C9.28997726 96.17041718 9.07604828 96.8213031 8.8556366 97.49191284 C7.14085926 102.67772974 5.2430997 107.74325198 3.0625 112.75 C2.79260254 113.39138916 2.52270508 114.03277832 2.24462891 114.69360352 C1.47265625 116.421875 1.47265625 116.421875 0 119 C-0.99 119.33 -1.98 119.66 -3 120 C-2.41973771 114.14248741 -0.75135157 109.15714402 1.375 103.6875 C3.87304691 97.19363654 6.08429341 90.69082195 8 84 C7.70343506 84.54825439 7.40687012 85.09650879 7.10131836 85.66137695 C-3.28783447 104.82511135 -3.28783447 104.82511135 -8.7578125 113.00390625 C-10.15455656 115.07574156 -10.15455656 115.07574156 -11 118 C-11.99 118 -12.98 118 -14 118 C-13.39677492 113.48517872 -11.55888706 109.89186452 -9.40234375 105.94921875 C-9.04862198 105.29041214 -8.69490021 104.63160553 -8.33045959 103.95283508 C-7.2055516 101.86104606 -6.0716912 99.77426749 -4.9375 97.6875 C-4.17062678 96.26529581 -3.40434414 94.84277299 -2.63867188 93.41992188 C-0.76593334 89.94288782 1.11484629 86.4703174 3 83 C2.44711304 83.83422485 2.44711304 83.83422485 1.88305664 84.68530273 C-1.99361439 90.51972655 -5.9450164 96.29732203 -9.94335938 102.04882812 C-13.10125314 106.61721782 -16.09551629 111.26656361 -19 116 C-19.99 115.67 -20.98 115.34 -22 115 C-21.38527735 111.94289788 -20.40060121 109.7932188 -18.671875 107.20703125 C-18.20136719 106.49353516 -17.73085938 105.78003906 -17.24609375 105.04492188 C-16.75238281 104.30822266 -16.25867187 103.57152344 -15.75 102.8125 C-11.8820337 97.01055055 -8.30216254 91.14408392 -5 85 C-7.08518434 87.87366157 -9.1678091 90.74916889 -11.25 93.625 C-11.83652344 94.43324219 -12.42304687 95.24148437 -13.02734375 96.07421875 C-13.60097656 96.86699219 -14.17460938 97.65976563 -14.765625 98.4765625 C-15.32572266 99.2490332 -15.88582031 100.02150391 -16.46289062 100.81738281 C-17.79296195 102.7060165 -19.02169761 104.62140012 -20.234375 106.5859375 C-20.81703125 107.38257812 -21.3996875 108.17921875 -22 109 C-22.99 109 -23.98 109 -25 109 C-24.31387652 105.12763186 -22.52450228 102.12741765 -20.5625 98.75 C-19.94503906 97.67234375 -19.32757813 96.5946875 -18.69140625 95.484375 C-18.13324219 94.66453125 -17.57507812 93.8446875 -17 93 C-16.34 93 -15.68 93 -15 93 C-14.75378906 92.29101562 -14.50757813 91.58203125 -14.25390625 90.8515625 C-12.84226317 87.64128385 -11.05572563 85.16598332 -8.9375 82.375 C-5.95254352 78.46223997 -5.95254352 78.46223997 -4 74 C-11.27941961 83.17918504 -11.27941961 83.17918504 -18.375 92.5 C-19.24838831 93.6678737 -20.12327448 94.83462947 -21 96 C-21.44988281 96.598125 -21.89976563 97.19625 -22.36328125 97.8125 C-23.50458633 99.26690648 -24.74462133 100.64283387 -26 102 C-26.99 102 -27.98 102 -29 102 C-27.54283921 97.73036222 -25.37965927 94.61793232 -22.625 91.0625 C-19.58604117 87.12405001 -16.71709102 83.16248419 -14 79 C-14.81984375 79.96421875 -15.6396875 80.9284375 -16.484375 81.921875 C-17.57282799 83.1979923 -18.6613746 84.47402977 -19.75 85.75 C-20.28882812 86.38421875 -20.82765625 87.0184375 -21.3828125 87.671875 C-27.27338209 94.5681516 -27.27338209 94.5681516 -30 97 C-30.66 97 -31.32 97 -32 97 C-31.40152299 93.29955765 -29.82836068 91.27752433 -27.4375 88.4375 C-23.05531791 83.12024107 -19.00588482 77.60397717 -15 72 C-16.41152344 71.53980469 -16.41152344 71.53980469 -17.8515625 71.0703125 C-20.39364681 70.20612999 -22.64520851 69.26796465 -25 68 C-25 67.34 -25 66.68 -25 66 C-25.804375 65.773125 -26.60875 65.54625 -27.4375 65.3125 C-34.98890499 62.53040343 -41.43142546 58.13387213 -47.93359375 53.453125 C-49.92826744 51.97391686 -49.92826744 51.97391686 -52 51 C-51.42415568 48.61435923 -50.77772405 46.33317216 -50 44 C-49.236875 44.309375 -48.47375 44.61875 -47.6875 44.9375 C-45.81210323 45.67893593 -43.91315348 46.36228217 -42 47 C-43.65 45.68 -45.3 44.36 -47 43 C-44.525 42.505 -44.525 42.505 -42 42 C-42 41.34 -42 40.68 -42 40 C-41.01 40 -40.02 40 -39 40 C-38.67 39.34 -38.34 38.68 -38 38 C-37.01 38 -36.02 38 -35 38 C-34.67 37.34 -34.34 36.68 -34 36 C-30.64404172 36.59927826 -28.62198774 37.84622436 -26 40 C-25.79375 39.236875 -25.5875 38.47375 -25.375 37.6875 C-23.44105609 32.50101406 -20.7214854 27.80966916 -18 23 C-17.34 23 -16.68 23 -16 23 C-15.67 21.68 -15.34 20.36 -15 19 C-14.34 19 -13.68 19 -13 19 C-12.67 17.68 -12.34 16.36 -12 15 C-11.34 15 -10.68 15 -10 15 C-9.731875 14.443125 -9.46375 13.88625 -9.1875 13.3125 C-6.63822229 8.34811709 -3.79883356 4.08374608 0 0 Z M4 15 C5 17 5 17 5 17 Z M-3 17 C-2 19 -2 19 -2 19 Z M-9 18 C-9 21 -9 21 -9 21 Z M7 18 C8 20 8 20 8 20 Z M1 19 C1 22 1 22 1 22 Z M-6 21 C-5 23 -5 23 -5 23 Z M-12 22 C-11 24 -11 24 -11 24 Z M3 23 C4 25 4 25 4 25 Z M-3 24 C-3 27 -3 27 -3 27 Z M-14 25 C-13 27 -13 27 -13 27 Z M-9 25 C-8 27 -8 27 -8 27 Z M4 28 C5 30 5 30 5 30 Z M-2 29 C-1 31 -1 31 -1 31 Z M-6 34 C-5 36 -5 36 -5 36 Z M-1 34 C0 36 0 36 0 36 Z M-40 44 C-39.67 44.66 -39.34 45.32 -39 46 C-38.34 45.67 -37.68 45.34 -37 45 C-37.99 44.67 -38.98 44.34 -40 44 Z M-49 48 C-48.67 48.66 -48.34 49.32 -48 50 C-47.34 49.67 -46.68 49.34 -46 49 C-46.99 48.67 -47.98 48.34 -49 48 Z M-40 49 C-39.67 49.66 -39.34 50.32 -39 51 C-38.34 50.67 -37.68 50.34 -37 50 C-37.99 49.67 -38.98 49.34 -40 49 Z M-46 50 C-45.67 50.66 -45.34 51.32 -45 52 C-44.34 51.67 -43.68 51.34 -43 51 C-43.99 50.67 -44.98 50.34 -46 50 Z M23 58 C23.33 58.66 23.66 59.32 24 60 C24.66 59.67 25.32 59.34 26 59 C25.01 58.67 24.02 58.34 23 58 Z M19 60 C19.33 60.66 19.66 61.32 20 62 C20.66 61.67 21.32 61.34 22 61 C21.01 60.67 20.02 60.34 19 60 Z M26 60 C27.32 61.32 28.64 62.64 30 64 C30 63.01 30 62.02 30 61 C28.68 60.67 27.36 60.34 26 60 Z M22 62 C22.33 62.66 22.66 63.32 23 64 C23.66 63.67 24.32 63.34 25 63 C24.01 62.67 23.02 62.34 22 62 Z M32 63 C31.67 63.66 31.34 64.32 31 65 C31.99 65.33 32.98 65.66 34 66 C33.67 65.01 33.34 64.02 33 63 C32.67 63 32.34 63 32 63 Z M26 65 C26.33 65.66 26.66 66.32 27 67 C27.66 66.67 28.32 66.34 29 66 C28.01 65.67 27.02 65.34 26 65 Z M21 66 C21.33 66.66 21.66 67.32 22 68 C22.66 67.67 23.32 67.34 24 67 C23.01 66.67 22.02 66.34 21 66 Z M0 67 C1 69 1 69 1 69 Z M-1 69 C-1 72 -1 72 -1 72 Z M-11 74 C-11 77 -11 77 -11 77 Z M0 76 C1 78 1 78 1 78 Z M5 77 C6 79 6 79 6 79 Z M10 77 C11 79 11 79 11 79 Z M-1 78 C-1 81 -1 81 -1 81 Z M4 79 C5 81 5 81 5 81 Z M9 80 C10 82 10 82 10 82 Z M-3 81 C-3 84 -3 84 -3 84 Z " fill="#C7271B" transform="translate(52,0)"/>
<path d="M0 0 C1.65 0.66 3.3 1.32 5 2 C6.15622839 8.97240758 5.66171984 14.06591133 3.6875 20.8125 C3.3481543 22.06063477 3.3481543 22.06063477 3.00195312 23.33398438 C1.31035281 29.41302066 1.31035281 29.41302066 -0.06713867 32.01831055 C-2.03841291 36.20591405 -1.41353522 40.75939435 0 45 C0.33 45.66 0.66 46.32 1 47 C1.66 47 2.32 47 3 47 C5.19218189 42.61563621 4.15774649 36.63098598 3 32 C3.96099609 32.10828125 3.96099609 32.10828125 4.94140625 32.21875 C9.99557809 32.76107544 14.91779721 33.11048267 20 33 C20.495 38.94 20.495 38.94 21 45 C27.18221622 39.03715629 27.18221622 39.03715629 32 32 C32.66 32 33.32 32 34 32 C34 31.34 34 30.68 34 30 C37.40424088 27.90508254 40.03414842 27.50426855 44 28 C45.35308313 29.31328657 46.68870078 30.64499081 48 32 C50.10820797 31.6814823 50.10820797 31.6814823 52 31 C52.99 31.99 52.99 31.99 54 33 C53.9765625 35.6015625 53.9765625 35.6015625 53.625 38.625 C53.51414062 39.62789062 53.40328125 40.63078125 53.2890625 41.6640625 C53.19367188 42.43492188 53.09828125 43.20578125 53 44 C53.83144531 43.36771484 53.83144531 43.36771484 54.6796875 42.72265625 C55.40414062 42.17480469 56.12859375 41.62695312 56.875 41.0625 C57.59429687 40.51722656 58.31359375 39.97195312 59.0546875 39.41015625 C61 38 61 38 63 37 C63.4375 39.125 63.4375 39.125 63 42 C59.98317763 45.83387843 57.1129045 47.79250933 52.3125 48.6875 C49 48 49 48 46.5625 45.5 C46.046875 44.675 45.53125 43.85 45 43 C44.34 43.99 43.68 44.98 43 46 C42.34 46 41.68 46 41 46 C41 46.66 41 47.32 41 48 C37.2794164 50.48038907 35.40203429 50.46337203 31 50 C28.5625 48 28.5625 48 27 46 C26.40832031 46.44472656 25.81664062 46.88945313 25.20703125 47.34765625 C24.41683594 47.91355469 23.62664062 48.47945312 22.8125 49.0625 C22.03519531 49.63097656 21.25789063 50.19945312 20.45703125 50.78515625 C17.48016155 52.25702664 16.112514 51.96747771 13 51 C10.5393557 45.53190155 11.28915301 42.51272919 13 37 C11.68 37.33 10.36 37.66 9 38 C9.04640625 38.56847656 9.0928125 39.13695312 9.140625 39.72265625 C9.42349971 45.7741545 8.40589234 48.99759562 5 54 C1.92380854 54.36190488 -0.93406999 54.49898525 -4 54 C-7.53920198 50.7620067 -9.52814247 47.54937783 -11 43 C-11.495 43.33 -11.99 43.66 -12.5 44 C-16.03843306 45.41537322 -19.23964916 45.61898779 -23 45 C-26.80379875 42.39740086 -27.81123197 39.3588161 -29 35 C-32.51546181 39.48249823 -35.64712114 43.77138032 -38 49 C-39.953125 48.4453125 -39.953125 48.4453125 -42 47 C-42.609375 43.7421875 -42.609375 43.7421875 -42.75 39.875 C-42.80671875 38.59367187 -42.8634375 37.31234375 -42.921875 35.9921875 C-42.94765625 35.00476563 -42.9734375 34.01734375 -43 33 C-48.45538954 37.69769655 -50.81161663 43.19717323 -52.9375 50 C-54 52 -54 52 -56.5625 52.875 C-57.366875 52.91625 -58.17125 52.9575 -59 53 C-60 52 -60 52 -60.09765625 49.05859375 C-60.08605469 47.86363281 -60.07445312 46.66867188 -60.0625 45.4375 C-60.05347656 44.23996094 -60.04445312 43.04242188 -60.03515625 41.80859375 C-60.02355469 40.88175781 -60.01195312 39.95492187 -60 39 C-61.485 39.495 -61.485 39.495 -63 40 C-63.4125 40.94875 -63.825 41.8975 -64.25 42.875 C-66.56978042 47.01746503 -68.48411436 47.72049907 -73 49 C-77.00939087 48.93204422 -79.14308435 48.67163659 -82.3125 46.1875 C-85.44724527 42.12394132 -86.46515161 39.34040752 -86.31640625 34.03515625 C-85.78092223 30.59087017 -84.29845538 28.54693705 -82 26 C-79.25 25.125 -79.25 25.125 -77 25 C-76.16092048 27.62212351 -76.01954694 29.51799401 -76.125 32.3125 C-75.9769621 36.67961803 -74.90329715 39.11410166 -73 43 C-71.00016466 42.20882096 -71.00016466 42.20882096 -69 41 C-68.67 40.01 -68.34 39.02 -68 38 C-68.78375 37.71125 -69.5675 37.4225 -70.375 37.125 C-73 36 -73 36 -75 34 C-75.375 30.5625 -75.375 30.5625 -75 27 C-73 25.0625 -73 25.0625 -71 24 C-67.49810101 25.89291837 -65.00875939 27.51110211 -63 31 C-63 32.32 -63 33.64 -63 35 C-59.9789286 32.9859524 -58.39332574 31.36720387 -57 28 C-54.625 28.1875 -54.625 28.1875 -52 29 C-50.6875 31.5625 -50.6875 31.5625 -50 34 C-49.236875 33.236875 -48.47375 32.47375 -47.6875 31.6875 C-46.800625 30.800625 -45.91375 29.91375 -45 29 C-44.484375 28.4225 -43.96875 27.845 -43.4375 27.25 C-41.66099871 25.70521627 -40.32134594 25.29952851 -38 25 C-37.34 25.33 -36.68 25.66 -36 26 C-35.26924352 28.3140622 -34.59861742 30.64828869 -34 33 C-33.27683594 32.36771484 -33.27683594 32.36771484 -32.5390625 31.72265625 C-31.90742188 31.17480469 -31.27578125 30.62695312 -30.625 30.0625 C-29.99851563 29.51722656 -29.37203125 28.97195312 -28.7265625 28.41015625 C-25.46881768 25.74941896 -23.12877792 25.91024396 -19 26 C-17.55792059 28.88415883 -17.90605113 31.41721528 -17.9375 34.625 C-17.94652344 35.81351563 -17.95554687 37.00203125 -17.96484375 38.2265625 C-17.97644531 39.14179687 -17.98804688 40.05703125 -18 41 C-16.02 40.01 -14.04 39.02 -12 38 C-12.33 37.01 -12.66 36.02 -13 35 C-12.4712359 24.2484634 -11.12792599 10.7649334 -3.25 2.75 C-2.5075 2.1725 -1.765 1.595 -1 1 C-0.67 0.67 -0.34 0.34 0 0 Z M0 8 C-2.11293829 14.36539272 -3.46048934 20.31006781 -4 27 C-0.06756918 21.10135377 1.44895473 15.03362418 1 8 C0.67 8 0.34 8 0 8 Z M-68 31 C-68.33 31.66 -68.66 32.32 -69 33 C-68.34 33.66 -67.68 34.32 -67 35 C-67.33 33.68 -67.66 32.36 -68 31 Z M42 32 C41.030625 32.78375 40.06125 33.5675 39.0625 34.375 C38.51722656 34.81585938 37.97195313 35.25671875 37.41015625 35.7109375 C35.86733563 36.9666391 35.86733563 36.9666391 35 39 C34.960008 40.99960012 34.95653201 43.00047242 35 45 C38.45201639 43.52278578 40.64961936 41.56205999 43.25 38.875 C43.95640625 38.15054688 44.6628125 37.42609375 45.390625 36.6796875 C45.92171875 36.12539062 46.4528125 35.57109375 47 35 C46.67 34.34 46.34 33.68 46 33 C45.01 33.33 44.02 33.66 43 34 C42.67 33.34 42.34 32.68 42 32 Z M-36 35 C-35 37 -35 37 -35 37 Z " fill="#F1AA0C" transform="translate(242,66)"/>
<path d="M0 0 C3.97614372 1.32538124 6.11189884 3.01230914 9 6 C9.66 6 10.32 6 11 6 C11.495 6.99 11.495 6.99 12 8 C12.99 8.33 13.98 8.66 15 9 C15 9.66 15 10.32 15 11 C15.804375 11.226875 16.60875 11.45375 17.4375 11.6875 C20 13 20 13 20.77539062 15.19018555 C21.05421758 18.67825016 20.30939267 20.96795066 19.15625 24.26953125 C18.73738525 25.48157227 18.31852051 26.69361328 17.88696289 27.94238281 C17.42557835 29.23275708 16.96324086 30.52279098 16.5 31.8125 C16.0368353 33.12460647 15.57386376 34.43678115 15.11108398 35.74902344 C12.59976982 42.81603984 10.00975349 49.85142032 7.0625 56.75 C6.79308594 57.39171143 6.52367187 58.03342285 6.24609375 58.69458008 C5.47265625 60.421875 5.47265625 60.421875 4 63 C2.515 63.495 2.515 63.495 1 64 C1.58026229 58.14248741 3.24864843 53.15714402 5.375 47.6875 C7.87304691 41.19363654 10.08429341 34.69082195 12 28 C11.70343506 28.54825439 11.40687012 29.09650879 11.10131836 29.66137695 C0.71216553 48.82511135 0.71216553 48.82511135 -4.7578125 57.00390625 C-6.15455656 59.07574156 -6.15455656 59.07574156 -7 62 C-7.99 62 -8.98 62 -10 62 C-9.39677492 57.48517872 -7.55888706 53.89186452 -5.40234375 49.94921875 C-5.04862198 49.29041214 -4.69490021 48.63160553 -4.33045959 47.95283508 C-3.2055516 45.86104606 -2.0716912 43.77426749 -0.9375 41.6875 C-0.17062678 40.26529581 0.59565586 38.84277299 1.36132812 37.41992188 C3.23406666 33.94288782 5.11484629 30.4703174 7 27 C6.63140869 27.5561499 6.26281738 28.1122998 5.88305664 28.68530273 C2.00638561 34.51972655 -1.9450164 40.29732203 -5.94335938 46.04882812 C-9.10125314 50.61721782 -12.09551629 55.26656361 -15 60 C-15.99 59.67 -16.98 59.34 -18 59 C-17.38527735 55.94289788 -16.40060121 53.7932188 -14.671875 51.20703125 C-14.20136719 50.49353516 -13.73085938 49.78003906 -13.24609375 49.04492188 C-12.75238281 48.30822266 -12.25867187 47.57152344 -11.75 46.8125 C-7.8820337 41.01055055 -4.30216254 35.14408392 -1 29 C-3.08518434 31.87366157 -5.1678091 34.74916889 -7.25 37.625 C-7.83652344 38.43324219 -8.42304687 39.24148437 -9.02734375 40.07421875 C-9.60097656 40.86699219 -10.17460938 41.65976563 -10.765625 42.4765625 C-11.32572266 43.2490332 -11.88582031 44.02150391 -12.46289062 44.81738281 C-13.79296195 46.7060165 -15.02169761 48.62140012 -16.234375 50.5859375 C-16.81703125 51.38257813 -17.3996875 52.17921875 -18 53 C-18.99 53 -19.98 53 -21 53 C-20.31387652 49.12763186 -18.52450228 46.12741765 -16.5625 42.75 C-15.94503906 41.67234375 -15.32757813 40.5946875 -14.69140625 39.484375 C-14.13324219 38.66453125 -13.57507812 37.8446875 -13 37 C-12.34 37 -11.68 37 -11 37 C-10.75378906 36.29101562 -10.50757812 35.58203125 -10.25390625 34.8515625 C-8.84226317 31.64128385 -7.05572563 29.16598332 -4.9375 26.375 C-1.95254352 22.46223997 -1.95254352 22.46223997 0 18 C-7.27941961 27.17918504 -7.27941961 27.17918504 -14.375 36.5 C-15.24838831 37.6678737 -16.12327448 38.83462947 -17 40 C-17.44988281 40.598125 -17.89976563 41.19625 -18.36328125 41.8125 C-19.50458633 43.26690648 -20.74462133 44.64283387 -22 46 C-22.99 46 -23.98 46 -25 46 C-23.54283921 41.73036222 -21.37965927 38.61793232 -18.625 35.0625 C-15.58604117 31.12405001 -12.71709102 27.16248419 -10 23 C-10.81984375 23.96421875 -11.6396875 24.9284375 -12.484375 25.921875 C-13.57282799 27.1979923 -14.6613746 28.47402977 -15.75 29.75 C-16.28882813 30.38421875 -16.82765625 31.0184375 -17.3828125 31.671875 C-23.27338209 38.5681516 -23.27338209 38.5681516 -26 41 C-26.66 41 -27.32 41 -28 41 C-27.39942645 37.29505331 -25.8159336 35.2328439 -23.4375 32.375 C-22.72078125 31.50488281 -22.0040625 30.63476562 -21.265625 29.73828125 C-20.14414062 28.38283203 -20.14414062 28.38283203 -19 27 C-17.55985303 25.18960248 -16.1222425 23.37718357 -14.6875 21.5625 C-10.2632874 15.97165933 -10.2632874 15.97165933 -8 14 C-7.34 14 -6.68 14 -6 14 C-5.773125 13.29875 -5.54625 12.5975 -5.3125 11.875 C-4.13942298 9.30540271 -3.15713979 7.92459977 -1.3125 5.875 C-0.549375 4.92625 0.21375 3.9775 1 3 C0.67 2.01 0.34 1.02 0 0 Z M4 11 C5 13 5 13 5 13 Z M3 13 C3 16 3 16 3 16 Z M-7 18 C-7 21 -7 21 -7 21 Z M4 20 C5 22 5 22 5 22 Z M9 21 C10 23 10 23 10 23 Z M14 21 C15 23 15 23 15 23 Z M3 22 C3 25 3 25 3 25 Z M8 23 C9 25 9 25 9 25 Z M13 24 C14 26 14 26 14 26 Z M1 25 C1 28 1 28 1 28 Z " fill="#EC8816" transform="translate(48,56)"/>
<path d="M0 0 C2.9375 0.8125 2.9375 0.8125 4.9375 3.8125 C6.00256474 13.39808268 2.41914837 21.32022575 -3.0625 29.0625 C-6.25634726 34.50202112 -4.53262325 40.23784997 -3.1875 46.04296875 C-2.11936038 49.62197822 -1.04353137 52.64574182 0.9375 55.8125 C4.53135054 56.79123538 4.53135054 56.79123538 7.9375 56.8125 C7.9375 57.8025 7.9375 58.7925 7.9375 59.8125 C6.52126784 59.86697047 5.10441809 59.90550508 3.6875 59.9375 C2.89859375 59.96070313 2.1096875 59.98390625 1.296875 60.0078125 C-1.26981941 59.7953378 -2.8541067 59.09904105 -5.0625 57.8125 C-5.0625 57.1525 -5.0625 56.4925 -5.0625 55.8125 C-5.7225 55.8125 -6.3825 55.8125 -7.0625 55.8125 C-8.06734204 53.85664675 -9.06623805 51.89773763 -10.0625 49.9375 C-10.619375 48.84695312 -11.17625 47.75640625 -11.75 46.6328125 C-13.0625 43.8125 -13.0625 43.8125 -13.0625 41.8125 C-15.0425 42.4725 -17.0225 43.1325 -19.0625 43.8125 C-19.10375 44.555 -19.145 45.2975 -19.1875 46.0625 C-20.0625 48.8125 -20.0625 48.8125 -22.6875 51.125 C-26.59934809 53.08092405 -28.74591226 53.44036731 -33.0625 52.8125 C-36.59952226 50.61168615 -38.4989564 48.63526078 -40.0625 44.8125 C-40.73969617 39.96975991 -40.71761776 36.02568104 -38.375 31.6875 C-36.0625 29.8125 -36.0625 29.8125 -33.4375 29.5 C-32.65375 29.603125 -31.87 29.70625 -31.0625 29.8125 C-28.96847272 29.92299533 -28.96847272 29.92299533 -26.75 29 C-24.0625 28.8125 -24.0625 28.8125 -21.375 30.9375 C-19.25278633 33.57592781 -18.06875046 35.61079398 -17.0625 38.8125 C-15.5775 38.3175 -15.5775 38.3175 -14.0625 37.8125 C-14.3925 37.1525 -14.7225 36.4925 -15.0625 35.8125 C-15.52912185 28.79944804 -14.80444893 21.78152027 -14.0625 14.8125 C-13.4025 14.8125 -12.7425 14.8125 -12.0625 14.8125 C-11.9696875 13.8225 -11.9696875 13.8225 -11.875 12.8125 C-10.29193249 6.96732764 -6.82549286 -0.41788732 0 0 Z M-0.0625 3.8125 C-3.42583168 10.86570041 -6.56246937 17.81299012 -6.0625 25.8125 C-1.43628642 21.82255648 0.58624943 15.27096713 1.19140625 9.3125 C1.18812896 7.47721705 1.07561934 5.64258123 0.9375 3.8125 C0.6075 3.8125 0.2775 3.8125 -0.0625 3.8125 Z M-32.0625 32.8125 C-32.42446676 38.60396822 -31.44460489 42.4985737 -29.0625 47.8125 C-28.4025 48.1425 -27.7425 48.4725 -27.0625 48.8125 C-25.7425 47.4925 -24.4225 46.1725 -23.0625 44.8125 C-25.60854597 41.28868313 -25.60854597 41.28868313 -29.0625 38.8125 C-29.78943904 36.83361039 -30.46066251 34.83295442 -31.0625 32.8125 C-31.3925 32.8125 -31.7225 32.8125 -32.0625 32.8125 Z M-24.0625 35.8125 C-23.7325 36.8025 -23.4025 37.7925 -23.0625 38.8125 C-22.7325 37.8225 -22.4025 36.8325 -22.0625 35.8125 C-22.7225 35.8125 -23.3825 35.8125 -24.0625 35.8125 Z " fill="#F1AA0C" transform="translate(155.0625,60.1875)"/>
<path d="M0 0 C0.99 0 1.98 0 3 0 C1.55797524 4.15151338 -0.5010438 7.29978445 -3.125 10.8125 C-4.21167969 12.27623047 -4.21167969 12.27623047 -5.3203125 13.76953125 C-5.87460937 14.50558594 -6.42890625 15.24164063 -7 16 C-4.03595495 13.19195732 -1.55500981 10.81684226 0 7 C0.66 7 1.32 7 2 7 C2.66 5.68 3.32 4.36 4 3 C4.66 3.33 5.32 3.66 6 4 C5.38801624 7.43950364 4.07941153 9.51564485 1.9375 12.25 C1.38964844 12.95640625 0.84179688 13.6628125 0.27734375 14.390625 C-0.14417969 14.92171875 -0.56570312 15.4528125 -1 16 C0.0988353 14.93346808 0.0988353 14.93346808 1.33984375 13.37109375 C1.86707031 12.73300781 2.39429687 12.09492188 2.9375 11.4375 C3.46214844 10.79683594 3.98679687 10.15617188 4.52734375 9.49609375 C5.25630859 8.75552734 5.25630859 8.75552734 6 8 C6.66 8 7.32 8 8 8 C7.67 9.65 7.34 11.3 7 13 C7.99 13 8.98 13 10 13 C10.1953125 15.05078125 10.390625 17.1015625 10.5859375 19.15234375 C10.79089844 20.06693359 10.79089844 20.06693359 11 21 C11.66 21.33 12.32 21.66 13 22 C11.55183158 26.30515286 9.38004712 29.31997533 6.5 32.8125 C5.7059375 33.78832031 4.911875 34.76414063 4.09375 35.76953125 C3.4028125 36.50558594 2.711875 37.24164063 2 38 C1.34 38 0.68 38 0 38 C-0.28230469 38.57492188 -0.56460938 39.14984375 -0.85546875 39.7421875 C-5.70534303 49.30951628 -5.70534303 49.30951628 -9.8125 51.5 C-10.8953125 51.7475 -10.8953125 51.7475 -12 52 C-12 51.34 -12 50.68 -12 50 C-12.78375 49.896875 -13.5675 49.79375 -14.375 49.6875 C-17 49 -17 49 -19 46 C-20.88316159 44.89163577 -20.88316159 44.89163577 -23 44 C-24.33333333 43.33333333 -25.66666667 42.66666667 -27 42 C-25.56283647 34.97386719 -22.07996731 28.86014173 -18 23 C-17.34 23 -16.68 23 -16 23 C-15.67 21.68 -15.34 20.36 -15 19 C-14.34 19 -13.68 19 -13 19 C-12.67 17.68 -12.34 16.36 -12 15 C-11.34 15 -10.68 15 -10 15 C-9.731875 14.443125 -9.46375 13.88625 -9.1875 13.3125 C-6.63822229 8.34811709 -3.79883356 4.08374608 0 0 Z M4 15 C5 17 5 17 5 17 Z M-3 17 C-2 19 -2 19 -2 19 Z M-9 18 C-9 21 -9 21 -9 21 Z M7 18 C8 20 8 20 8 20 Z M1 19 C1 22 1 22 1 22 Z M-6 21 C-5 23 -5 23 -5 23 Z M-12 22 C-11 24 -11 24 -11 24 Z M3 23 C4 25 4 25 4 25 Z M-3 24 C-3 27 -3 27 -3 27 Z M-14 25 C-13 27 -13 27 -13 27 Z M-9 25 C-8 27 -8 27 -8 27 Z M4 28 C5 30 5 30 5 30 Z M-2 29 C-1 31 -1 31 -1 31 Z M-6 34 C-5 36 -5 36 -5 36 Z M-1 34 C0 36 0 36 0 36 Z " fill="#027FBE" transform="translate(52,0)"/>
<path d="M0 0 C7.12998704 3.11367611 13.6152971 7.36477154 20.1875 11.5 C21.25419922 12.16386719 22.32089844 12.82773437 23.41992188 13.51171875 C28.15551012 16.47923559 32.68166699 19.44102556 37 23 C36.67 24.98 36.34 26.96 36 29 C35.01 29 34.02 29 33 29 C32.505 30.485 32.505 30.485 32 32 C31.01 32 30.02 32 29 32 C28.67 32.33 28.34 32.66 28 33 C26.68 33 25.36 33 24 33 C23.67 33.99 23.34 34.98 23 36 C16 36 16 36 13.4375 33.6875 C12.07987398 32.19063028 10.72399722 30.69215074 9.375 29.1875 C7.92438937 27.67319006 7.92438937 27.67319006 5 28 C5 27.01 5 26.02 5 25 C4.01 25 3.02 25 2 25 C2 24.34 2 23.68 2 23 C1.443125 22.731875 0.88625 22.46375 0.3125 22.1875 C-2 21 -2 21 -4.5 19.4375 C-6.86382908 17.91277813 -6.86382908 17.91277813 -9.25 17.5 C-9.8275 17.335 -10.405 17.17 -11 17 C-11.33 16.01 -11.66 15.02 -12 14 C-11.01 13.67 -10.02 13.34 -9 13 C-8.31653318 11.34015202 -7.65411685 9.67163195 -7 8 C-2.87384615 1.43692308 -2.87384615 1.43692308 0 0 Z M21 21 C21.33 21.66 21.66 22.32 22 23 C22.66 22.67 23.32 22.34 24 22 C23.01 21.67 22.02 21.34 21 21 Z M17 23 C17.33 23.66 17.66 24.32 18 25 C18.66 24.67 19.32 24.34 20 24 C19.01 23.67 18.02 23.34 17 23 Z M24 23 C25.32 24.32 26.64 25.64 28 27 C28 26.01 28 25.02 28 24 C26.68 23.67 25.36 23.34 24 23 Z M20 25 C20.33 25.66 20.66 26.32 21 27 C21.66 26.67 22.32 26.34 23 26 C22.01 25.67 21.02 25.34 20 25 Z M30 26 C29.67 26.66 29.34 27.32 29 28 C29.99 28.33 30.98 28.66 32 29 C31.67 28.01 31.34 27.02 31 26 C30.67 26 30.34 26 30 26 Z M24 28 C24.33 28.66 24.66 29.32 25 30 C25.66 29.67 26.32 29.34 27 29 C26.01 28.67 25.02 28.34 24 28 Z M19 29 C19.33 29.66 19.66 30.32 20 31 C20.66 30.67 21.32 30.34 22 30 C21.01 29.67 20.02 29.34 19 29 Z " fill="#B2307F" transform="translate(54,37)"/>
<path d="M0 0 C1.86234644 1.21631717 3.55730116 2.55339491 5.1328125 4.12890625 C4.9453125 7.56640625 4.9453125 7.56640625 4.1328125 11.12890625 C2.3828125 12.62890625 2.3828125 12.62890625 0.1328125 13.12890625 C-2.6171875 12.75390625 -2.6171875 12.75390625 -4.8671875 12.12890625 C-4.8671875 11.46890625 -4.8671875 10.80890625 -4.8671875 10.12890625 C-3.8978125 9.86078125 -2.9284375 9.59265625 -1.9296875 9.31640625 C-0.9190625 8.92453125 0.0915625 8.53265625 1.1328125 8.12890625 C1.4628125 7.13890625 1.7928125 6.14890625 2.1328125 5.12890625 C-4.73574276 6.05107339 -10.122421 7.9056759 -14.8671875 13.12890625 C-19.48171818 20.63253439 -23.01919861 28.15619998 -21.8671875 37.12890625 C-20.51652591 41.4587414 -18.86881938 44.36575815 -15.2421875 47.12890625 C-10.11618176 48.64772277 -4.71173005 49.16731192 0.390625 47.3046875 C2.49503466 46.16990545 2.49503466 46.16990545 2.8828125 43.00390625 C2.9653125 42.05515625 3.0478125 41.10640625 3.1328125 40.12890625 C4.4528125 40.45890625 5.7728125 40.78890625 7.1328125 41.12890625 C7.85636345 43.73368968 8.28941958 45.55468029 7.5703125 48.19140625 C4.97588219 51.6882471 2.04764639 53.65500087 -2.203125 54.70703125 C-8.99110017 55.66779081 -14.12232965 54.7815139 -19.7421875 50.80078125 C-25.52514523 46.06473828 -29.95328759 41.79447489 -30.8671875 34.12890625 C-31.57511267 23.15606618 -30.81801535 16.33413251 -23.6796875 7.87890625 C-17.51472169 1.40519417 -9.1819662 -4.28363695 0 0 Z " fill="#F1AA0C" transform="translate(107.8671875,63.87109375)"/>
<path d="M0 0 C2.96175123 0.61277612 4.38058783 1.25372522 7 3 C6.39217242 9.83315843 4.14291914 15.99376662 1.875 22.4375 C1.47265137 23.58661865 1.07030273 24.7357373 0.65576172 25.91967773 C-1.69109191 32.53628188 -4.1155902 39.10590629 -6.875 45.5625 C-7.14844238 46.21597412 -7.42188477 46.86944824 -7.70361328 47.54272461 C-8.4921875 49.31640625 -8.4921875 49.31640625 -10 52 C-11.485 52.495 -11.485 52.495 -13 53 C-12.41973771 47.14248741 -10.75135157 42.15714402 -8.625 36.6875 C-6.12695309 30.19363654 -3.91570659 23.69082195 -2 17 C-2.29656494 17.54825439 -2.59312988 18.09650879 -2.89868164 18.66137695 C-13.28783447 37.82511135 -13.28783447 37.82511135 -18.7578125 46.00390625 C-20.15455656 48.07574156 -20.15455656 48.07574156 -21 51 C-21.99 51 -22.98 51 -24 51 C-23.40097456 46.3920697 -21.46106779 42.73583142 -19.25390625 38.72265625 C-18.88273178 38.03368759 -18.51155731 37.34471893 -18.12913513 36.63487244 C-16.94640693 34.44068842 -15.75528129 32.25123319 -14.5625 30.0625 C-13.37390794 27.87702427 -12.1873614 25.69054383 -11.00657654 23.50083923 C-10.27337307 22.14149153 -9.53570302 20.78454028 -8.79286194 19.43043518 C-6.78402842 15.71009628 -5.07044111 12.09940972 -4 8 C-4.33 7.34 -4.66 6.68 -5 6 C-4.360625 5.38125 -3.72125 4.7625 -3.0625 4.125 C-0.96116416 2.17402388 -0.96116416 2.17402388 0 0 Z M0 10 C1 12 1 12 1 12 Z M-1 13 C0 15 0 15 0 15 Z " fill="#ED9414" transform="translate(62,67)"/>
<path d="M0 0 C0.66 0 1.32 0 2 0 C2 1.32 2 2.64 2 4 C2.66 4.33 3.32 4.66 4 5 C2.55183158 9.30515286 0.38004712 12.31997533 -2.5 15.8125 C-3.2940625 16.78832031 -4.088125 17.76414062 -4.90625 18.76953125 C-5.5971875 19.50558594 -6.288125 20.24164063 -7 21 C-7.66 21 -8.32 21 -9 21 C-9.28230469 21.57492188 -9.56460938 22.14984375 -9.85546875 22.7421875 C-14.70534303 32.30951628 -14.70534303 32.30951628 -18.8125 34.5 C-19.8953125 34.7475 -19.8953125 34.7475 -21 35 C-21 34.34 -21 33.68 -21 33 C-21.78375 32.896875 -22.5675 32.79375 -23.375 32.6875 C-26 32 -26 32 -28 29 C-29.88316159 27.89163577 -29.88316159 27.89163577 -32 27 C-33.33333333 26.33333333 -34.66666667 25.66666667 -36 25 C-34.75696561 19.82069003 -33.14512215 16.29833361 -30 12 C-28.68 12.66 -27.36 13.32 -26 14 C-26.99 15.32 -27.98 16.64 -29 18 C-28.01 18 -27.02 18 -26 18 C-25.34 19.65 -24.68 21.3 -24 23 C-23.34 22.34 -22.68 21.68 -22 21 C-21.24589844 21.0825 -20.49179687 21.165 -19.71484375 21.25 C-16.7128128 21.25709268 -16.7128128 21.25709268 -14.31640625 18.4375 C-13.38299872 17.30420788 -12.46566297 16.15753933 -11.5625 15 C-11.08240479 14.41001221 -10.60230957 13.82002441 -10.10766602 13.2121582 C-6.97802013 9.33940005 -3.96277557 5.38262953 -1.12109375 1.29296875 C-0.75113281 0.86628906 -0.38117187 0.43960937 0 0 Z M-5 11 C-4 13 -4 13 -4 13 Z M-10 17 C-9 19 -9 19 -9 19 Z " fill="#1B579E" transform="translate(61,17)"/>
<path d="M0 0 C4.97675991 1.82705375 9.82219411 4.76220044 14 8 C14 8.99 14 9.98 14 11 C13.34 11 12.68 11 12 11 C12 11.99 12 12.98 12 14 C10.35 13.34 8.7 12.68 7 12 C7.33 12.99 7.66 13.98 8 15 C4.70897992 15.90786761 2.18880951 16.59440475 -1 15 C-1 15.66 -1 16.32 -1 17 C-7.84824903 18.40077821 -7.84824903 18.40077821 -11 17 C-11.33 16.01 -11.66 15.02 -12 14 C-11.01 13.67 -10.02 13.34 -9 13 C-8.31653318 11.34015202 -7.65411685 9.67163195 -7 8 C-2.87384615 1.43692308 -2.87384615 1.43692308 0 0 Z " fill="#9F227D" transform="translate(54,37)"/>
<path d="M0 0 C23.43 0 46.86 0 71 0 C71 0.99 71 1.98 71 3 C62.03815073 3.15369317 53.07623243 3.3018748 44.1141758 3.4429636 C39.95301946 3.50864673 35.79191254 3.57624901 31.63085938 3.64819336 C27.61740679 3.71751581 23.60390277 3.78185441 19.59031296 3.84269524 C18.05683858 3.86682501 16.52339167 3.89276971 14.98997879 3.92053413 C12.84704131 3.95902883 10.7040981 3.9911479 8.56103516 4.02172852 C6.72903061 4.05170677 6.72903061 4.05170677 4.86001587 4.08229065 C2 4 2 4 0 3 C0 2.01 0 1.02 0 0 Z " fill="#21478E" transform="translate(162,64)"/>
<path d="M0 0 C0.66 0 1.32 0 2 0 C2 1.32 2 2.64 2 4 C2.66 4.33 3.32 4.66 4 5 C2.55183158 9.30515286 0.38004712 12.31997533 -2.5 15.8125 C-3.2940625 16.78832031 -4.088125 17.76414062 -4.90625 18.76953125 C-5.5971875 19.50558594 -6.288125 20.24164063 -7 21 C-7.66 21 -8.32 21 -9 21 C-9.433125 21.8971875 -9.433125 21.8971875 -9.875 22.8125 C-11 25 -11 25 -13 28 C-16.08843563 28 -18.94507053 27.51998799 -22 27 C-21.195625 26.071875 -20.39125 25.14375 -19.5625 24.1875 C-13.27025727 16.84160342 -7.16823975 9.35476335 -1.41015625 1.58203125 C-0.94480469 1.05996094 -0.47945312 0.53789062 0 0 Z M-5 11 C-4 13 -4 13 -4 13 Z M-10 17 C-9 19 -9 19 -9 19 Z " fill="#0289C5" transform="translate(61,17)"/>
<path d="M0 0 C1.32 0.33 2.64 0.66 4 1 C2.42126615 5.46312325 0.08314619 9.33381387 -2.4375 13.3125 C-3.0881543 14.34624756 -3.0881543 14.34624756 -3.75195312 15.40087891 C-7.06825365 20.62724554 -10.49978834 25.77025724 -14 30.875 C-14.46849365 31.55860596 -14.9369873 32.24221191 -15.41967773 32.9465332 C-17.16280879 35.46318066 -18.83054287 37.83054287 -21 40 C-21.66 39.67 -22.32 39.34 -23 39 C-22.39914542 36.08669312 -21.53295281 33.99140748 -19.8828125 31.5234375 C-19.44557861 30.86077881 -19.00834473 30.19812012 -18.55786133 29.51538086 C-18.08501709 28.80905518 -17.61217285 28.10272949 -17.125 27.375 C-12.90066558 20.96568928 -8.79975474 14.49709239 -4.8125 7.9375 C-4.33119629 7.14585449 -3.84989258 6.35420898 -3.35400391 5.53857422 C-2.2341712 3.6934931 -1.11679382 1.84692208 0 0 Z " fill="#F1D405" transform="translate(53,76)"/>
<path d="M0 0 C1.32 0.33 2.64 0.66 4 1 C2.35021487 6.26460096 -0.94640222 10.31172298 -4.1875 14.6875 C-5.36509721 16.29649903 -6.54218435 17.9058715 -7.71875 19.515625 C-8.28464844 20.28712891 -8.85054687 21.05863281 -9.43359375 21.85351562 C-13.06312194 26.82714589 -16.58466977 31.87700465 -20 37 C-20.99 37 -21.98 37 -23 37 C-22.31387652 33.12763186 -20.52450228 30.12741765 -18.5625 26.75 C-17.94503906 25.67234375 -17.32757813 24.5946875 -16.69140625 23.484375 C-16.13324219 22.66453125 -15.57507812 21.8446875 -15 21 C-14.34 21 -13.68 21 -13 21 C-12.75121094 20.2884375 -12.50242187 19.576875 -12.24609375 18.84375 C-10.86273526 15.68674379 -9.13626017 13.24956656 -7.0625 10.5 C-4.50039522 7.09024561 -2.13488726 3.69422497 0 0 Z " fill="#F1D206" transform="translate(50,72)"/>
<path d="M0 0 C0.66 0 1.32 0 2 0 C2.56203125 0.56589844 3.1240625 1.13179687 3.703125 1.71484375 C6.94582322 4.94099759 10.74131145 7.27427254 14.57421875 9.73242188 C16.1008109 10.74841915 17.55734526 11.86797467 19 13 C19 13.99 19 14.98 19 16 C18.01 16 17.02 16 16 16 C15.67 16.33 15.34 16.66 15 17 C11.1286639 16.56248599 8.65469731 15.35772592 5.5 13.125 C2.38969399 10.96492104 -0.7225693 8.90302428 -4 7 C-3.34 5.68 -2.68 4.36 -2 3 C-1.34 3 -0.68 3 0 3 C0 2.01 0 1.02 0 0 Z M4 7 C4.33 7.66 4.66 8.32 5 9 C5.66 8.67 6.32 8.34 7 8 C6.01 7.67 5.02 7.34 4 7 Z M7 9 C7.33 9.66 7.66 10.32 8 11 C8.66 10.67 9.32 10.34 10 10 C9.01 9.67 8.02 9.34 7 9 Z M11 12 C11.33 12.66 11.66 13.32 12 14 C12.66 13.67 13.32 13.34 14 13 C13.01 12.67 12.02 12.34 11 12 Z " fill="#C04085" transform="translate(67,53)"/>
<path d="M0 0 C0.33 0.66 0.66 1.32 1 2 C1.66 2 2.32 2 3 2 C1.26646543 6.0717905 -1.50188617 9.33143603 -4.25 12.75 C-7.8761789 17.28847713 -11.41417639 21.83777031 -14.68359375 26.64453125 C-16.33928785 28.34935574 -17.68916525 28.62222022 -20 29 C-18.57647418 24.89338887 -16.58616983 21.87096089 -13.9375 18.4375 C-13.1434375 17.39980469 -12.349375 16.36210938 -11.53125 15.29296875 C-11.11746094 14.75591309 -10.70367187 14.21885742 -10.27734375 13.66552734 C-8.13988577 10.87849784 -6.04059052 8.06299449 -3.9375 5.25 C-2.625 3.5 -1.3125 1.75 0 0 Z " fill="#F2D504" transform="translate(43,73)"/>
<path d="M0 0 C0.33 0.99 0.66 1.98 1 3 C-0.75982428 5.37154402 -2.52542872 7.50695654 -4.5 9.6875 C-5.05300781 10.31237305 -5.60601562 10.93724609 -6.17578125 11.58105469 C-7.27755312 12.82538603 -8.38296282 14.06650687 -9.4921875 15.30419922 C-11.88895371 17.99978505 -14.18861625 20.77802988 -16.5 23.546875 C-18.1915696 25.18558305 -19.85410968 26.05654822 -22 27 C-21.39942645 23.29505331 -19.8159336 21.2328439 -17.4375 18.375 C-16.72078125 17.50488281 -16.0040625 16.63476562 -15.265625 15.73828125 C-14.14414062 14.38283203 -14.14414062 14.38283203 -13 13 C-11.55985303 11.18960248 -10.1222425 9.37718357 -8.6875 7.5625 C-2.70304976 0 -2.70304976 0 0 0 Z " fill="#F3D505" transform="translate(42,70)"/>
<path d="M0 0 C3.6875 0.375 3.6875 0.375 6.1875 2.5 C7.6875 5.375 7.6875 5.375 7.6875 8.5 C6.52647552 11.83794538 5.85002443 12.8364746 2.6875 14.375 C-0.5 14.625 -0.5 14.625 -3.3125 14.375 C-4.3125 13.375 -4.3125 13.375 -4.4453125 10.6875 C-4.44273437 9.594375 -4.44015625 8.50125 -4.4375 7.375 C-4.44007813 6.281875 -4.44265625 5.18875 -4.4453125 4.0625 C-4.25016139 0.11355999 -4.02903309 0.45611695 0 0 Z M-0.3125 3.375 C-0.3125 6.015 -0.3125 8.655 -0.3125 11.375 C1.0075 10.715 2.3275 10.055 3.6875 9.375 C3.3575 7.725 3.0275 6.075 2.6875 4.375 C1.6975 4.045 0.7075 3.715 -0.3125 3.375 Z " fill="#251913" transform="translate(144.3125,46.625)"/>
<path d="M0 0 C3.1875 0.25 3.1875 0.25 5.5625 1.3125 C7.1875 3.25 7.1875 3.25 7.625 6.6875 C6.97204774 12.00439698 6.97204774 12.00439698 4.1875 14.25 C0.5625 14.5625 0.5625 14.5625 -2.8125 14.25 C-3.8125 13.25 -3.8125 13.25 -3.9453125 10.5625 C-3.94273437 9.469375 -3.94015625 8.37625 -3.9375 7.25 C-3.94007813 6.156875 -3.94265625 5.06375 -3.9453125 3.9375 C-3.76309657 0.25030707 -3.68872393 0.32788657 0 0 Z M0.1875 3.25 C0.1875 5.89 0.1875 8.53 0.1875 11.25 C1.5075 10.59 2.8275 9.93 4.1875 9.25 C3.8575 7.6 3.5275 5.95 3.1875 4.25 C2.1975 3.92 1.2075 3.59 0.1875 3.25 Z " fill="#211713" transform="translate(248.8125,46.75)"/>
<path d="M0 0 C1.875 1.0625 1.875 1.0625 3 3 C3.504958 6.9675271 3.61854451 9.10654682 1.3125 12.4375 C-1.45005055 14.30408821 -2.73235745 14.58649994 -6 14 C-7.8125 13 -7.8125 13 -9 11 C-9.54662881 7.40572839 -9.68324933 4.21466547 -7.875 1 C-5.10184376 -0.47901666 -3.08815875 -0.38601984 0 0 Z M-4 3 C-4.66 3.66 -5.32 4.32 -6 5 C-5.67958603 7.60280568 -5.67958603 7.60280568 -5 10 C-3.68 10 -2.36 10 -1 10 C-1 8.02 -1 6.04 -1 4 C-1.99 3.67 -2.98 3.34 -4 3 Z " fill="#221713" transform="translate(131,47)"/>
<path d="M0 0 C6.75 -0.125 6.75 -0.125 9 1 C8.979375 2.051875 8.95875 3.10375 8.9375 4.1875 C8.98896802 7.32704904 9.26517187 9.96883396 10 13 C8.68 13 7.36 13 6 13 C5.67 12.01 5.34 11.02 5 10 C4.34 11.32 3.68 12.64 3 14 C2.01 13.67 1.02 13.34 0 13 C0 8.71 0 4.42 0 0 Z M4 3 C4 3.66 4 4.32 4 5 C4.66 4.67 5.32 4.34 6 4 C5.34 3.67 4.68 3.34 4 3 Z " fill="#221610" transform="translate(107,47)"/>
<path d="M0 0 C1 2 1 2 -0.1171875 5.60546875 C-1.93734542 10.18899498 -4.42973054 14.19968969 -7.125 18.3125 C-8.02622076 19.70262664 -8.92477584 21.09448606 -9.8203125 22.48828125 C-10.21492676 23.09196533 -10.60954102 23.69564941 -11.01611328 24.31762695 C-12.16334933 26.14680034 -12.16334933 26.14680034 -13 29 C-13.99 29 -14.98 29 -16 29 C-15.05933138 22.92388143 -12.06051863 18.13699457 -9.125 12.8125 C-8.58230469 11.80251953 -8.03960937 10.79253906 -7.48046875 9.75195312 C-6.95324219 8.78837891 -6.42601562 7.82480469 -5.8828125 6.83203125 C-5.40215332 5.95264893 -4.92149414 5.0732666 -4.42626953 4.16723633 C-3 2 -3 2 0 0 Z " fill="#F4DC02" transform="translate(54,89)"/>
<path d="M0 0 C2.63326457 2.63326457 2.71180635 4.32553101 3 8 C2.0625 10.875 2.0625 10.875 1 13 C-5.34507042 14.31690141 -5.34507042 14.31690141 -7.9375 13.0625 C-9.62822841 9.7804978 -9.54135705 6.60904698 -9 3 C-6.88804118 -0.75459346 -4.01124771 -0.42672848 0 0 Z M-5 3 C-5.33 4.98 -5.66 6.96 -6 9 C-4.02 9.99 -4.02 9.99 -2 11 C-0.64381501 9.87465895 -0.64381501 9.87465895 -0.9375 6.9375 C-0.958125 5.968125 -0.97875 4.99875 -1 4 C-2.32 3.67 -3.64 3.34 -5 3 Z " fill="#271A12" transform="translate(213,47)"/>
<path d="M0 0 C0.99 0 1.98 0 3 0 C3.33 3.63 3.66 7.26 4 11 C4.66 10.67 5.32 10.34 6 10 C6.46751788 7.64400765 6.46751788 7.64400765 6.625 4.9375 C6.73714844 3.55884766 6.73714844 3.55884766 6.8515625 2.15234375 C6.90054688 1.44207031 6.94953125 0.73179688 7 0 C8.32 0 9.64 0 11 0 C11.08153933 1.58246707 11.13943557 3.16616273 11.1875 4.75 C11.22230469 5.63171875 11.25710937 6.5134375 11.29296875 7.421875 C10.94435368 10.48968761 10.13082965 11.7983114 8 14 C5.5 14.4375 5.5 14.4375 3 14 C1.35546875 12.828125 1.35546875 12.828125 0 11 C-0.29296875 8.30078125 -0.29296875 8.30078125 -0.1875 5.3125 C-0.16042969 4.31863281 -0.13335937 3.32476562 -0.10546875 2.30078125 C-0.07066406 1.54152344 -0.03585938 0.78226563 0 0 Z " fill="#1F1410" transform="translate(157,47)"/>
<path d="M0 0 C5.08938811 1.59043379 8.87456643 4.7446951 13 8 C12.67 9.98 12.34 11.96 12 14 C10.68 14 9.36 14 8 14 C7.34 13.34 6.68 12.68 6 12 C4.51379037 10.97961727 3.01197419 9.98180142 1.5 9 C-0.92056623 7.42820375 -2.95591306 6.04408694 -5 4 C-4.01 3.67 -3.02 3.34 -2 3 C-1.34 2.01 -0.68 1.02 0 0 Z " fill="#CE4C82" transform="translate(78,52)"/>
<path d="M0 0 C0.99 0 1.98 0 3 0 C2.38353395 5.70698119 0.33719857 10.57537758 -1.875 15.8125 C-2.22691406 16.68326172 -2.57882813 17.55402344 -2.94140625 18.45117188 C-3.28816406 19.27810547 -3.63492188 20.10503906 -3.9921875 20.95703125 C-4.46180908 22.08588745 -4.46180908 22.08588745 -4.94091797 23.23754883 C-6 25 -6 25 -9 26 C-8.42979207 20.09201224 -6.71414333 15.11145154 -4.5 9.625 C-4.17902344 8.80644531 -3.85804687 7.98789063 -3.52734375 7.14453125 C-1.15232229 1.15232229 -1.15232229 1.15232229 0 0 Z " fill="#F3D703" transform="translate(58,94)"/>
<path d="M0 0 C1.2065625 0.0309375 1.2065625 0.0309375 2.4375 0.0625 C2.7675 1.3825 3.0975 2.7025 3.4375 4.0625 C2.1175 3.7325 0.7975 3.4025 -0.5625 3.0625 C-0.5625 3.7225 -0.5625 4.3825 -0.5625 5.0625 C1.9125 6.0525 1.9125 6.0525 4.4375 7.0625 C4.1075 9.0425 3.7775 11.0225 3.4375 13.0625 C-2.3125 14.1875 -2.3125 14.1875 -4.5625 13.0625 C-4.5625 12.0725 -4.5625 11.0825 -4.5625 10.0625 C-2.0875 10.5575 -2.0875 10.5575 0.4375 11.0625 C-0.408125 10.340625 -1.25375 9.61875 -2.125 8.875 C-4.5625 6.0625 -4.5625 6.0625 -4.4375 3.3125 C-3.17946306 0.07754788 -3.17946306 0.07754788 0 0 Z " fill="#1F1614" transform="translate(225.5625,46.9375)"/>
<path d="M0 0 C0.99 0 1.98 0 3 0 C1.44272772 4.6105758 -1.04257276 8.16894476 -3.875 12.0625 C-4.30941406 12.67416016 -4.74382813 13.28582031 -5.19140625 13.91601562 C-7.57480451 17.22629099 -10.0038013 20.20587051 -13 23 C-13.93065133 20.39417629 -14.14917407 19.35801776 -13.0625 16.75 C-12.711875 16.1725 -12.36125 15.595 -12 15 C-11.34 15 -10.68 15 -10 15 C-9.731875 14.443125 -9.46375 13.88625 -9.1875 13.3125 C-6.63822229 8.34811709 -3.79883356 4.08374608 0 0 Z " fill="#049ED4" transform="translate(52,0)"/>
<path d="M0 0 C0.33 1.32 0.66 2.64 1 4 C-0.65 4 -2.3 4 -4 4 C-4 5.98 -4 7.96 -4 10 C-2.35 10 -0.7 10 1 10 C1 10.99 1 11.98 1 13 C-5.75 14.125 -5.75 14.125 -8 13 C-9.07421771 9.01812533 -9.52899505 5.27581158 -7.9375 1.4375 C-5.24851919 -0.55755028 -3.26099043 -0.28986582 0 0 Z " fill="#221713" transform="translate(183,47)"/>
<path d="M0 0 C8.58 0 17.16 0 26 0 C26 1.32 26 2.64 26 4 C22.04168191 4.02892857 18.08339083 4.04677427 14.125 4.0625 C12.43310547 4.07506836 12.43310547 4.07506836 10.70703125 4.08789062 C9.63066406 4.09111328 8.55429687 4.09433594 7.4453125 4.09765625 C6.45031738 4.10289307 5.45532227 4.10812988 4.43017578 4.11352539 C2 4 2 4 0 3 C0 2.01 0 1.02 0 0 Z " fill="#274989" transform="translate(249,64)"/>
<path d="M0 0 C2.64 0 5.28 0 8 0 C8 0.99 8 1.98 8 3 C6.35 3 4.7 3 3 3 C3 3.66 3 4.32 3 5 C4.32 5 5.64 5 7 5 C7 5.99 7 6.98 7 8 C5.68 8 4.36 8 3 8 C3 8.99 3 9.98 3 11 C4.65 11 6.3 11 8 11 C7.67 11.99 7.34 12.98 7 14 C4.69 14 2.38 14 0 14 C0 9.38 0 4.76 0 0 Z " fill="#221713" transform="translate(263,47)"/>
<path d="M0 0 C3.375 -0.125 3.375 -0.125 7 0 C7.66 0.66 8.32 1.32 9 2 C8.625 5.125 8.625 5.125 8 8 C6.35 8.33 4.7 8.66 3 9 C3 10.65 3 12.3 3 14 C2.01 13.67 1.02 13.34 0 13 C-0.19466332 11.20909747 -0.38051213 9.41723495 -0.5625 7.625 C-0.66691406 6.62726562 -0.77132812 5.62953125 -0.87890625 4.6015625 C-1 2 -1 2 0 0 Z M3 3 C3 3.99 3 4.98 3 6 C3.66 6 4.32 6 5 6 C5 5.01 5 4.02 5 3 C4.34 3 3.68 3 3 3 Z " fill="#221611" transform="translate(92,47)"/>
<path d="M0 0 C8.58 0 17.16 0 26 0 C25.67 1.32 25.34 2.64 25 4 C16.75 3.67 8.5 3.34 0 3 C0 2.01 0 1.02 0 0 Z " fill="#23478A" transform="translate(115,64)"/>
<path d="M0 0 C0.66 0.33 1.32 0.66 2 1 C1.46863344 5.32532378 -1.25712257 8.26605095 -3.875 11.5625 C-4.54595703 12.4277832 -4.54595703 12.4277832 -5.23046875 13.31054688 C-7.35268228 16.0243509 -9.47474117 18.65033864 -12 21 C-12.66 20.67 -13.32 20.34 -14 20 C-12.6619772 16.20109104 -10.97380503 13.43125504 -8.4375 10.3125 C-5.97527569 7.31223679 -5.97527569 7.31223679 -4 4 C-3.34 4 -2.68 4 -2 4 C-1.34 2.68 -0.68 1.36 0 0 Z " fill="#019DD5" transform="translate(56,3)"/>
<path d="M0 0 C0.66 0 1.32 0 2 0 C1.65099932 5.44652571 -1.61243656 8.7768539 -4.9375 12.8125 C-5.48857422 13.50537109 -6.03964844 14.19824219 -6.60742188 14.91210938 C-9.6543588 18.66987484 -9.6543588 18.66987484 -11 20 C-11.66 20 -12.32 20 -13 20 C-13.33 19.01 -13.66 18.02 -14 17 C-12.85546875 14.95703125 -12.85546875 14.95703125 -11.1875 12.8125 C-10.64480469 12.09707031 -10.10210937 11.38164062 -9.54296875 10.64453125 C-8.77919922 9.83048828 -8.77919922 9.83048828 -8 9 C-7.34 9 -6.68 9 -6 9 C-5.7525 8.443125 -5.505 7.88625 -5.25 7.3125 C-3.77075182 4.57589087 -2.06532561 2.32349131 0 0 Z " fill="#0499CF" transform="translate(58,8)"/>
<path d="M0 0 C6.55581223 1.59360653 11.13255086 3.26064162 16 8 C15.67 8.99 15.34 9.98 15 11 C8 11 8 11 5.4375 8.6875 C4.633125 7.800625 3.82875 6.91375 3 6 C2.401875 5.46375 1.80375 4.9275 1.1875 4.375 C0 3 0 3 0 0 Z " fill="#CF5280" transform="translate(62,62)"/>
<path d="M0 0 C3.3 0 6.6 0 10 0 C10 0.99 10 1.98 10 3 C9.01 3 8.02 3 7 3 C7 6.3 7 9.6 7 13 C5.68 13 4.36 13 3 13 C3 9.7 3 6.4 3 3 C1.68 3 0.36 3 -1 3 C-0.67 2.01 -0.34 1.02 0 0 Z " fill="#231813" transform="translate(189,47)"/>
<path d="M0 0 C1.32 0.66 2.64 1.32 4 2 C3.01 3.32 2.02 4.64 1 6 C1.99 6 2.98 6 4 6 C4 7.98 4 9.96 4 12 C2.02 12.99 2.02 12.99 0 14 C0.33 13.01 0.66 12.02 1 11 C0.401875 11.33 -0.19625 11.66 -0.8125 12 C-3 13 -3 13 -6 13 C-4.75696561 7.82069003 -3.14512215 4.29833361 0 0 Z " fill="#0A6BAF" transform="translate(31,29)"/>
<path d="M0 0 C0.99 0.33 1.98 0.66 3 1 C3 1.66 3 2.32 3 3 C3.33 3.99 3.66 4.98 4 6 C3.26842674 8.625057 2.47758814 11.12859819 1.5625 13.6875 C1.31951172 14.38939453 1.07652344 15.09128906 0.82617188 15.81445312 C0.2255056 17.54578532 -0.38619719 19.27328137 -1 21 C-2.65 20.67 -4.3 20.34 -6 20 C-5.566875 18.80761719 -5.13375 17.61523438 -4.6875 16.38671875 C-4.12475139 14.8204018 -3.56226502 13.25399061 -3 11.6875 C-2.71382812 10.90181641 -2.42765625 10.11613281 -2.1328125 9.30664062 C-1.86210938 8.54931641 -1.59140625 7.79199219 -1.3125 7.01171875 C-1.06113281 6.31522217 -0.80976562 5.61872559 -0.55078125 4.90112305 C0.13913536 2.849632 0.13913536 2.849632 0 0 Z " fill="#F1AA0C" transform="translate(63,74)"/>
<path d="M0 0 C-0.56680182 4.07328768 -2.71591936 6.40620179 -5.3125 9.5 C-6.09238281 10.4384375 -6.87226562 11.376875 -7.67578125 12.34375 C-9.70524817 14.66314076 -11.78909381 16.85486448 -14 19 C-14.66 18.67 -15.32 18.34 -16 18 C-14.32754081 14.25730754 -12.01241859 11.14960383 -9.5625 7.875 C-8.78003906 6.82054687 -7.99757813 5.76609375 -7.19140625 4.6796875 C-3.36443149 0 -3.36443149 0 0 0 Z " fill="#1198C4" transform="translate(62,13)"/>
<path d="M0 0 C1.32 0.33 2.64 0.66 4 1 C2.62712658 4.69876091 0.93644547 7.9514476 -1.125 11.3125 C-1.66382813 12.19550781 -2.20265625 13.07851562 -2.7578125 13.98828125 C-3.16773438 14.65214844 -3.57765625 15.31601563 -4 16 C-5.32 15.34 -6.64 14.68 -8 14 C-5.36 9.38 -2.72 4.76 0 0 Z " fill="#F1A70C" transform="translate(53,76)"/>
<path d="M0 0 C1.32 0.33 2.64 0.66 4 1 C2.61219205 4.89006773 0.7847773 7.96558708 -1.625 11.3125 C-2.25664063 12.19550781 -2.88828125 13.07851562 -3.5390625 13.98828125 C-4.02117188 14.65214844 -4.50328125 15.31601563 -5 16 C-6.32 15.34 -7.64 14.68 -9 14 C-6.03 9.38 -3.06 4.76 0 0 Z " fill="#F3AD09" transform="translate(50,72)"/>
<path d="M0 0 C0.66 1.32 1.32 2.64 2 4 C1.34 4 0.68 4 0 4 C-0.28875 4.598125 -0.5775 5.19625 -0.875 5.8125 C-2 8 -2 8 -4 11 C-7.08843563 11 -9.94507053 10.51998799 -13 10 C-7.87872064 3.25962201 -7.87872064 3.25962201 -4.25 2.1875 C-3.5075 2.125625 -2.765 2.06375 -2 2 C-1.34 1.34 -0.68 0.68 0 0 Z " fill="#0674B5" transform="translate(52,34)"/>
<path d="M0 0 C0.99 0.33 1.98 0.66 3 1 C1.73502412 4.90034228 0.62588439 6.98561978 -3 9 C-6.25 9.6875 -6.25 9.6875 -9 10 C-8.625 7.5625 -8.625 7.5625 -8 5 C-7.34 4.67 -6.68 4.34 -6 4 C-6.33 3.34 -6.66 2.68 -7 2 C-5.34385343 1.61781233 -3.67542976 1.28604898 -2 1 C-1.67 1.33 -1.34 1.66 -1 2 C-0.67 1.34 -0.34 0.68 0 0 Z " fill="#0377B7" transform="translate(45,30)"/>
<path d="M0 0 C0.99 0 1.98 0 3 0 C1.59983383 4.04735532 -0.3181237 6.98480422 -3 10.3125 C-3.70125 11.19550781 -4.4025 12.07851563 -5.125 12.98828125 C-5.74375 13.65214844 -6.3625 14.31601562 -7 15 C-7.66 15 -8.32 15 -9 15 C-8.47430949 10.57942075 -6.90421124 8.12333807 -4.125 4.6875 C-3.42632812 3.80449219 -2.72765625 2.92148437 -2.0078125 2.01171875 C-1.34523438 1.34785156 -0.68265625 0.68398438 0 0 Z " fill="#028FCA" transform="translate(62,22)"/>
<path d="M0 0 C0.33 0.66 0.66 1.32 1 2 C1.66 2 2.32 2 3 2 C3 2.99 3 3.98 3 5 C2.34 5 1.68 5 1 5 C1 5.66 1 6.32 1 7 C-5.84824903 8.40077821 -5.84824903 8.40077821 -9 7 C-9.33 6.01 -9.66 5.02 -10 4 C-8.68 3.67 -7.36 3.34 -6 3 C-5.67 3.66 -5.34 4.32 -5 5 C-3.35 3.35 -1.7 1.7 0 0 Z " fill="#87257F" transform="translate(52,47)"/>
<path d="M0 0 C2.475 0.99 2.475 0.99 5 2 C5 2.66 5 3.32 5 4 C4.34 4 3.68 4 3 4 C2.67 4.66 2.34 5.32 2 6 C2 5.34 2 4.68 2 4 C1.34 4 0.68 4 0 4 C-0.33 5.65 -0.66 7.3 -1 9 C-3.31 9.33 -5.62 9.66 -8 10 C-5.61820737 6.25718301 -3.25524265 3.02272532 0 0 Z " fill="#8E257E" transform="translate(54,37)"/>
<path d="M0 0 C0.33 0.66 0.66 1.32 1 2 C1.66 2 2.32 2 3 2 C2.42365861 6.75481646 0.44931479 9.97048212 -2 14 C-2.33 13.01 -2.66 12.02 -3 11 C-3.66 10.67 -4.32 10.34 -5 10 C-3.35 6.7 -1.7 3.4 0 0 Z " fill="#F1AC0B" transform="translate(57,79)"/>
<path d="M0 0 C0.33 0.99 0.66 1.98 1 3 C-0.43359375 5.04296875 -0.43359375 5.04296875 -2.4375 7.1875 C-3.09621094 7.90292969 -3.75492188 8.61835937 -4.43359375 9.35546875 C-5.20896484 10.16951172 -5.20896484 10.16951172 -6 11 C-7.32 10.34 -8.64 9.68 -10 9 C-2.6 0 -2.6 0 0 0 Z " fill="#F2AD09" transform="translate(42,70)"/>
<path d="M0 0 C0.66 0.99 1.32 1.98 2 3 C0.9024777 5.99324263 0.32317108 6.84610901 -2.625 8.25 C-3.40875 8.4975 -4.1925 8.745 -5 9 C-5 8.34 -5 7.68 -5 7 C-5.99 7 -6.98 7 -8 7 C-8 6.34 -8 5.68 -8 5 C-7.34 4.67 -6.68 4.34 -6 4 C-5.67 3.01 -5.34 2.02 -5 1 C-3.68 1.33 -2.36 1.66 -1 2 C-0.67 1.34 -0.34 0.68 0 0 Z " fill="#145FA8" transform="translate(45,43)"/>
<path d="M0 0 C1.81883578 1.09369862 3.62990978 2.20031392 5.4375 3.3125 C6.44683594 3.92738281 7.45617187 4.54226562 8.49609375 5.17578125 C11 7 11 7 12 10 C7.77510398 9.46719784 5.45919284 8.12321801 2.1875 5.4375 C1.39730469 4.79683594 0.60710937 4.15617187 -0.20703125 3.49609375 C-0.79871094 3.00238281 -1.39039062 2.50867187 -2 2 C-1.34 1.34 -0.68 0.68 0 0 Z " fill="#CC4987" transform="translate(70,60)"/>
<path d="M0 0 C1.98 0 3.96 0 6 0 C6 1.32 6 2.64 6 4 C3.5 5.75 3.5 5.75 1 7 C0.34 6.34 -0.32 5.68 -1 5 C-0.625 2.375 -0.625 2.375 0 0 Z " fill="#F1AA0B" transform="translate(257,89)"/>
<path d="M0 0 C0.33 0.66 0.66 1.32 1 2 C1.66 2 2.32 2 3 2 C1.56036361 5.35915158 -0.12416589 7.71624938 -3 10 C-4.32 9.67 -5.64 9.34 -7 9 C-4.69 6.03 -2.38 3.06 0 0 Z " fill="#F2AB0B" transform="translate(43,73)"/>
<path d="M0 0 C2.9719385 1.12451727 5.33440687 2.22293791 8 4 C7.67 4.66 7.34 5.32 7 6 C6.01 5.67 5.02 5.34 4 5 C3.01 6.32 2.02 7.64 1 9 C-0.32 8.67 -1.64 8.34 -3 8 C-2.319375 7.236875 -1.63875 6.47375 -0.9375 5.6875 C0.0215625 4.3571875 0.0215625 4.3571875 1 3 C0.67 2.01 0.34 1.02 0 0 Z " fill="#E5731B" transform="translate(48,56)"/>
<path d="M0 0 C3.58786447 1.65593745 6.83783588 3.62837691 10 6 C10 6.99 10 7.98 10 9 C9.01 9 8.02 9 7 9 C7 8.34 7 7.68 7 7 C6.236875 6.7525 5.47375 6.505 4.6875 6.25 C1.7635955 4.89004442 0.69995644 3.68414174 -1 1 C-0.67 0.67 -0.34 0.34 0 0 Z " fill="#CF5279" transform="translate(76,60)"/>
<path d="M0 0 C1.32 0.66 2.64 1.32 4 2 C2.38731308 4.71224618 0.75098126 7.37352812 -1 10 C-1 9.34 -1 8.68 -1 8 C-1.99 8 -2.98 8 -4 8 C-2.87548273 5.0280615 -1.77706209 2.66559313 0 0 Z " fill="#1B699A" transform="translate(31,29)"/>
<path d="M0 0 C2.64 0.66 5.28 1.32 8 2 C8 3.65 8 5.3 8 7 C5.25851328 6.62952882 3.41406801 6.31412056 1.1875 4.625 C0 3 0 3 0 0 Z " fill="#C84584" transform="translate(62,62)"/>
<path d="M0 0 C1.32 0.66 2.64 1.32 4 2 C4 2.99 4 3.98 4 5 C3.34 5 2.68 5 2 5 C2 5.99 2 6.98 2 8 C-0.475 7.01 -0.475 7.01 -3 6 C-3 4.68 -3 3.36 -3 2 C-2.34 2 -1.68 2 -1 2 C-0.67 1.34 -0.34 0.68 0 0 Z " fill="#AA2A80" transform="translate(64,43)"/>
<path d="M0 0 C1.98 0.495 1.98 0.495 4 1 C3.67 3.31 3.34 5.62 3 8 C2.34 8 1.68 8 1 8 C1 8.66 1 9.32 1 10 C0.34 9.67 -0.32 9.34 -1 9 C-0.835 8.4225 -0.67 7.845 -0.5 7.25 C0.14462031 4.73335631 0.14462031 4.73335631 0 1 C0 0.67 0 0.34 0 0 Z " fill="#F09D0F" transform="translate(65,69)"/>
<path d="M0 0 C0.66 0 1.32 0 2 0 C1.64598897 3.18609925 1.16972964 4.79066678 -0.875 7.3125 C-3 9 -3 9 -6 9 C-4.4722133 5.56247993 -2.49818944 2.81046312 0 0 Z M-8 9 C-6 10 -6 10 -6 10 Z " fill="#0F96C4" transform="translate(58,8)"/>
<path d="M0 0 C1.98 0.99 3.96 1.98 6 3 C5.34 4.65 4.68 6.3 4 8 C2.35 7.67 0.7 7.34 -1 7 C-0.34 6.01 0.32 5.02 1 4 C0.69159401 1.84725052 0.69159401 1.84725052 0 0 Z " fill="#C13C8B" transform="translate(72,48)"/>
<path d="M0 0 C0.99 0.99 1.98 1.98 3 3 C1.35 4.98 -0.3 6.96 -2 9 C-2.99 8.67 -3.98 8.34 -5 8 C-3.62845496 5.04590299 -2.01136276 2.55991624 0 0 Z " fill="#008FCB" transform="translate(51,23)"/>
<path d="M0 0 C2.4750171 1.11431765 4.67883419 2.58150978 7 4 C3.67395049 5.10868317 0.46941546 5.54177532 -3 6 C-2.625 3.5625 -2.625 3.5625 -2 1 C-1.34 0.67 -0.68 0.34 0 0 Z " fill="#B63482" transform="translate(62,59)"/>
<path d="M0 0 C-1.2419607 3.43927579 -2.55740284 6.25207819 -5 9 C-5.66 9 -6.32 9 -7 9 C-6.625 6.5625 -6.625 6.5625 -6 4 C-5.34 3.67 -4.68 3.34 -4 3 C-4.33 2.34 -4.66 1.68 -5 1 C-3 0 -3 0 0 0 Z " fill="#076BAD" transform="translate(43,31)"/>
<path d="M0 0 C0.99 1.32 1.98 2.64 3 4 C2.01 5.32 1.02 6.64 0 8 C-0.99 7.67 -1.98 7.34 -3 7 C-3 7.66 -3 8.32 -3 9 C-3.66 8.67 -4.32 8.34 -5 8 C-4.34 6.68 -3.68 5.36 -3 4 C-2.34 4 -1.68 4 -1 4 C-0.67 2.68 -0.34 1.36 0 0 Z " fill="#1B80A8" transform="translate(37,19)"/>
<path d="M0 0 C1.32 0.33 2.64 0.66 4 1 C4.33 2.98 4.66 4.96 5 7 C4.01 7.66 3.02 8.32 2 9 C1.67 7.02 1.34 5.04 1 3 C0.01 2.67 -0.98 2.34 -2 2 C-1.34 2 -0.68 2 0 2 C0 1.34 0 0.68 0 0 Z " fill="#BB397E" transform="translate(68,46)"/>
<path d="M0 0 C1.32 0.33 2.64 0.66 4 1 C2.75023244 4.65316671 2.32901247 5.78065836 -1 8 C-1.93065133 5.39417629 -2.14917407 4.35801776 -1.0625 1.75 C-0.711875 1.1725 -0.36125 0.595 0 0 Z " fill="#0493CB" transform="translate(40,15)"/>
<path d="M0 0 C0.66 0.33 1.32 0.66 2 1 C1.8125 2.8125 1.8125 2.8125 1 5 C-1.5625 6.75 -1.5625 6.75 -4 8 C-4.33 7.34 -4.66 6.68 -5 6 C-4.67 5.34 -4.34 4.68 -4 4 C-3.34 4 -2.68 4 -2 4 C-1.34 2.68 -0.68 1.36 0 0 Z " fill="#1C99BB" transform="translate(56,3)"/>
<path d="M0 0 C0.66 0 1.32 0 2 0 C1.67 2.64 1.34 5.28 1 8 C-0.65 7.67 -2.3 7.34 -4 7 C-3.34 5.35 -2.68 3.7 -2 2 C-1.34 2 -0.68 2 0 2 C0 1.34 0 0.68 0 0 Z " fill="#EFBC05" transform="translate(61,87)"/>
<path d="M0 0 C1.32 0 2.64 0 4 0 C3.6875 1.875 3.6875 1.875 3 4 C2.01 4.66 1.02 5.32 0 6 C-0.99 5.34 -1.98 4.68 -3 4 C-1.75 2 -1.75 2 0 0 Z " fill="#F0C308" transform="translate(31,80)"/>
<path d="M0 0 C1.32 0.33 2.64 0.66 4 1 C3.67 1.66 3.34 2.32 3 3 C2.34 2.67 1.68 2.34 1 2 C1 2.66 1 3.32 1 4 C-0.65 4.66 -2.3 5.32 -4 6 C-4.33 4.35 -4.66 2.7 -5 1 C-3.68 1.33 -2.36 1.66 -1 2 C-0.67 1.34 -0.34 0.68 0 0 Z M-7 3 C-6.34 3 -5.68 3 -5 3 C-5.33 3.66 -5.66 4.32 -6 5 C-6.33 4.34 -6.66 3.68 -7 3 Z " fill="#AD3E68" transform="translate(58,51)"/>
<path d="M0 0 C0.99 0 1.98 0 3 0 C5 2 5 2 6 5 C5.34 5 4.68 5 4 5 C3.67 5.66 3.34 6.32 3 7 C2.67 6.34 2.34 5.68 2 5 C1.01 4.67 0.02 4.34 -1 4 C-0.67 2.68 -0.34 1.36 0 0 Z " fill="#C2456F" transform="translate(64,56)"/>
<path d="M0 0 C2.475 0.495 2.475 0.495 5 1 C5 2.32 5 3.64 5 5 C3.0625 5.5625 3.0625 5.5625 1 6 C0 5 0 5 -0.0625 2.4375 C-0.041875 1.633125 -0.02125 0.82875 0 0 Z " fill="#B43779" transform="translate(59,53)"/>
<path d="M0 0 C1 2 1 2 0.0625 5.125 C-0.288125 6.07375 -0.63875 7.0225 -1 8 C-2.32 7.34 -3.64 6.68 -5 6 C-2.25 1.125 -2.25 1.125 0 0 Z " fill="#F4CB01" transform="translate(54,89)"/>
<path d="M0 0 C0.66 0 1.32 0 2 0 C1.67 2.31 1.34 4.62 1 7 C-3 7 -3 7 -5 6 C-3.38405168 3.95880212 -1.7143618 1.95927063 0 0 Z " fill="#1D90B2" transform="translate(61,17)"/>
<path d="M0 0 C-0.75 2.4375 -0.75 2.4375 -2 5 C-4 5.75 -4 5.75 -6 6 C-6.99 6.495 -6.99 6.495 -8 7 C-6.47663111 3.31852519 -4.31953005 0 0 0 Z " fill="#F1C404" transform="translate(40,82)"/>
<path d="M0 0 C1.32 0.33 2.64 0.66 4 1 C2.77065985 4.68802044 1.06140622 5.72356973 -2 8 C-2.20086443 4.28400809 -2.1519437 3.22791555 0 0 Z " fill="#EF9711" transform="translate(50,72)"/>
<path d="M0 0 C1.32 0.66 2.64 1.32 4 2 C3.01 2.66 2.02 3.32 1 4 C0.01 5.485 0.01 5.485 -1 7 C-1.66 5.35 -2.32 3.7 -3 2 C-2.01 1.34 -1.02 0.68 0 0 Z " fill="#9D1E7F" transform="translate(48,46)"/>
<path d="M0 0 C0.66 0 1.32 0 2 0 C2.33 1.65 2.66 3.3 3 5 C2.01 5.495 2.01 5.495 1 6 C1 6.66 1 7.32 1 8 C0.34 8 -0.32 8 -1 8 C-1 7.34 -1 6.68 -1 6 C-1.99 5.67 -2.98 5.34 -4 5 C-3.01 5 -2.02 5 -1 5 C-1.33 4.01 -1.66 3.02 -2 2 C-1.34 2 -0.68 2 0 2 C0 1.34 0 0.68 0 0 Z " fill="#A82977" transform="translate(54,41)"/>
<path d="M0 0 C0.99 0 1.98 0 3 0 C2.3125 2.375 2.3125 2.375 1 5 C-1.625 6.3125 -1.625 6.3125 -4 7 C-2.79618552 4.50638429 -1.54571278 2.31856917 0 0 Z " fill="#029BD3" transform="translate(62,22)"/>
<path d="M0 0 C0.99 0.33 1.98 0.66 3 1 C1.515 3.475 1.515 3.475 0 6 C-1.32 5.34 -2.64 4.68 -4 4 C-2.68 2.68 -1.36 1.36 0 0 Z " fill="#F3B805" transform="translate(49,86)"/>
<path d="M0 0 C0.33 0.99 0.66 1.98 1 3 C-0.65 4.32 -2.3 5.64 -4 7 C-4.66 6.34 -5.32 5.68 -6 5 C-4.02 3.35 -2.04 1.7 0 0 Z " fill="#0298D0" transform="translate(59,22)"/>
<path d="M0 0 C0.33 0.99 0.66 1.98 1 3 C0.67 3.66 0.34 4.32 0 5 C-1.65 5 -3.3 5 -5 5 C-4.1875 3.0625 -4.1875 3.0625 -3 1 C-2.01 0.67 -1.02 0.34 0 0 Z " fill="#F3C305" transform="translate(43,86)"/>
<path d="M0 0 C0.33 0.99 0.66 1.98 1 3 C-0.4375 5.1875 -0.4375 5.1875 -2 7 C-2.99 6.67 -3.98 6.34 -5 6 C-3.86695008 2.60085025 -2.87481525 1.94745549 0 0 Z " fill="#09A0D0" transform="translate(57,18)"/>
<path d="M0 0 C0.99 0.33 1.98 0.66 3 1 C2.67 2.65 2.34 4.3 2 6 C0.68 6 -0.64 6 -2 6 C-1.34 4.02 -0.68 2.04 0 0 Z " fill="#E77A20" transform="translate(60,64)"/>
<path d="M0 0 C1.32 1.32 2.64 2.64 4 4 C3.01 5.485 3.01 5.485 2 7 C0.35 6.01 -1.3 5.02 -3 4 C-2.34 3.67 -1.68 3.34 -1 3 C-0.67 2.01 -0.34 1.02 0 0 Z " fill="#C1401F" transform="translate(15,55)"/>
<path d="M0 0 C0.66 0 1.32 0 2 0 C2.33 0.66 2.66 1.32 3 2 C3.66 1.67 4.32 1.34 5 1 C5.66 2.65 6.32 4.3 7 6 C3.75728494 5.4409112 2.06942576 4.5867822 0 2 C0 1.34 0 0.68 0 0 Z " fill="#A42482" transform="translate(49,53)"/>
</svg>
