<?xml version="1.0" encoding="UTF-8"?>
<svg version="1.1" xmlns="http://www.w3.org/2000/svg" width="1792" height="947">
<path d="M0 0 C1.1419986 -0.00744736 1.1419986 -0.00744736 2.30706787 -0.01504517 C4.82671004 -0.02965436 7.34628923 -0.03646698 9.8659668 -0.04199219 C11.61850486 -0.047745 13.3710429 -0.05350272 15.12358093 -0.05926514 C18.79967543 -0.06977182 22.47574807 -0.07561655 26.15185547 -0.07910156 C30.85615419 -0.08458325 35.56016304 -0.10860564 40.26437092 -0.13707352 C43.88554215 -0.15572286 47.50664392 -0.16090674 51.12785912 -0.16243744 C52.86176321 -0.1654597 54.59566621 -0.17347384 56.32952309 -0.18662262 C58.75896701 -0.2037301 61.18770732 -0.20179154 63.6171875 -0.1953125 C64.68582283 -0.20913467 64.68582283 -0.20913467 65.77604675 -0.22323608 C70.41765105 -0.18457527 73.55684451 0.72970221 77.50268555 3.16113281 C82.17282402 8.20993116 82.65544922 12.19680383 82.6796875 18.84204102 C82.6862587 19.62288055 82.6928299 20.40372009 82.69960022 21.20822144 C82.71931388 23.79278664 82.73099118 26.3772938 82.7409668 28.96191406 C82.74504232 29.84531149 82.74911785 30.72870892 82.75331688 31.63887596 C82.77416888 36.3141799 82.78847464 40.98945455 82.79785156 45.66479492 C82.80891724 50.49024304 82.84332133 55.31523018 82.88302326 60.14051533 C82.90918356 63.85433299 82.91754284 67.56804067 82.92113304 71.28194237 C82.92600013 73.06051944 82.93761763 74.83909155 82.95617104 76.61757851 C82.98055165 79.10943657 82.97959986 81.60009988 82.97265625 84.09204102 C82.99187134 85.18872856 82.99187134 85.18872856 83.01147461 86.30757141 C82.95971645 91.41687877 81.80883899 94.29110323 78.50268555 98.16113281 C73.47115477 102.61940433 69.34361815 102.70425233 62.94799805 102.55175781 C62.04644989 102.54609802 61.14490173 102.54043823 60.21603394 102.53460693 C57.35269792 102.51231837 54.49063966 102.4621367 51.62768555 102.41113281 C49.67978703 102.39105806 47.73186878 102.372809 45.78393555 102.35644531 C41.02303084 102.31247829 36.26307441 102.24350344 31.50268555 102.16113281 C31.50545093 102.95790845 31.5082163 103.75468409 31.51106548 104.57560444 C31.57757747 124.04325643 31.62708804 143.51088548 31.65812206 162.9786272 C31.67353222 172.39342668 31.69450855 181.80814989 31.72900391 191.22290039 C31.75908682 199.437349 31.77830296 207.65174232 31.78495103 215.86624449 C31.7888316 220.20800135 31.79782635 224.54960017 31.81987572 228.89130592 C31.98955471 263.64567983 31.98955471 263.64567983 28.50268555 279.16113281 C28.27669174 280.18862137 28.05069794 281.21610992 27.81785583 282.2747345 C27.27612127 284.60597253 26.64646503 286.87486293 25.94018555 289.16113281 C25.69115479 289.97453125 25.44212402 290.78792969 25.18554688 291.62597656 C16.18879263 319.32306999 -3.63939262 342.89632403 -29.41333008 356.39306641 C-32.73727311 358.06708119 -36.10304454 359.63547657 -39.49731445 361.16113281 C-40.111875 361.43940918 -40.72643555 361.71768555 -41.35961914 362.00439453 C-91.69667046 384.41398455 -160.98728324 383.57875308 -212.10717773 364.10693359 C-223.86611266 359.45380654 -234.49138939 353.96702361 -244.49731445 346.16113281 C-245.07078613 345.71785645 -245.64425781 345.27458008 -246.23510742 344.81787109 C-271.152334 325.28521299 -285.31356071 296.8041293 -289.09661484 265.58847809 C-290.38358365 253.72962301 -290.78514216 242.0095169 -290.75610352 230.08886719 C-290.7588231 228.1743761 -290.76238939 226.25988606 -290.76672363 224.34539795 C-290.77573006 219.21368204 -290.772354 214.08204781 -290.76596546 208.95033073 C-290.76084973 203.5481433 -290.76561168 198.14596217 -290.76873779 192.74377441 C-290.77235887 183.6862667 -290.76762483 174.62879178 -290.75805664 165.57128906 C-290.74714932 155.12601529 -290.75072168 144.68081947 -290.76170945 134.23554754 C-290.77080409 125.22610736 -290.77205776 116.21669055 -290.76683211 107.20724726 C-290.76372775 101.84381488 -290.76326117 96.4804191 -290.76990509 91.11698914 C-290.77571067 86.08036924 -290.77162324 81.04384946 -290.76011658 76.0072403 C-290.75748824 74.16749996 -290.75820356 72.32775108 -290.76264191 70.48801422 C-290.82777726 40.73104575 -290.82777726 40.73104575 -282.8449707 32.44628906 C-267.52357339 19.63145982 -238.81865242 23.13264255 -220.3684082 24.46972656 C-211.78289955 25.2870234 -204.42657909 26.93040411 -197.68481445 32.47363281 C-187.40448239 45.10375506 -189.20431294 62.30261323 -189.24194336 77.76342773 C-189.23918616 79.67570647 -189.23550187 81.58798405 -189.23097229 83.5002594 C-189.22292492 87.5848108 -189.22067531 91.66930768 -189.22291946 95.7538662 C-189.22577685 102.2235134 -189.21131255 108.69305357 -189.19393921 115.16267395 C-189.14713662 133.54813054 -189.12296825 151.93357817 -189.11645508 170.3190918 C-189.11269689 180.49886926 -189.09461453 190.67852377 -189.06136072 200.85824853 C-189.04123699 207.27911476 -189.03873097 213.69966201 -189.04964089 220.1205467 C-189.05226047 224.12335623 -189.03818475 228.12598239 -189.01955986 232.12874413 C-189.01426925 233.97289357 -189.01568054 235.81707744 -189.02459526 237.66121292 C-189.08572309 251.42439615 -188.50922395 264.59165935 -178.49731445 275.16113281 C-177.99586914 275.70253906 -177.49442383 276.24394531 -176.9777832 276.80175781 C-162.73322087 290.52644561 -139.71314773 289.77976919 -121.4074707 289.44628906 C-106.3615521 288.9608058 -90.72606854 286.35541986 -79.4699707 275.52832031 C-71.79512215 266.31850204 -69.18042414 255.27072954 -69.2322998 243.55335999 C-69.22791853 242.73601535 -69.22353726 241.91867071 -69.21902323 241.07655805 C-69.20679559 238.3638884 -69.20850499 235.65141455 -69.21020508 232.9387207 C-69.20417497 230.98319719 -69.19724923 229.02767627 -69.1894989 227.07215881 C-69.17465128 222.87344163 -69.16587108 218.67477166 -69.16178894 214.47603035 C-69.15505446 207.83133863 -69.13327571 201.1867476 -69.10925293 194.542099 C-69.06035872 180.43596724 -69.02798898 166.32981418 -68.99731445 152.22363281 C-68.96419664 136.99658028 -68.92821919 121.76956735 -68.87318373 106.54257578 C-68.8498947 99.94283904 -68.83610911 93.34317254 -68.82968903 86.74339879 C-68.82373371 82.63152321 -68.80962295 78.51970432 -68.7933445 74.40785789 C-68.78748895 72.50762802 -68.78499201 70.60738422 -68.78618431 68.70714569 C-68.79872926 40.73069293 -68.79872926 40.73069293 -60.8449707 32.43847656 C-49.29374687 22.82426777 -32.62912541 23.97545938 -18.49731445 24.16113281 C-18.5437207 23.22011719 -18.59012695 22.27910156 -18.63793945 21.30957031 C-18.96958486 9.86780364 -18.96958486 9.86780364 -16.74731445 6.47363281 C-11.44882496 1.02796306 -7.48264468 0.01164173 0 0 Z M-17.49731445 25.16113281 C-17.56688456 33.68007897 -17.62016111 42.19890603 -17.65275097 50.71806622 C-17.66839403 54.67404415 -17.68960715 58.62982744 -17.72363281 62.58569336 C-17.75627523 66.40472637 -17.7741777 70.22357238 -17.78194618 74.04273415 C-17.78748097 75.49836991 -17.79828917 76.95399566 -17.81450462 78.40955162 C-17.83634467 80.45156184 -17.83927876 82.49280352 -17.83789062 84.53491211 C-17.84455246 85.69629196 -17.85121429 86.85767181 -17.858078 88.054245 C-17.24380475 93.34435282 -14.42649902 96.72309631 -10.49731445 100.16113281 C-6.61270398 101.45600297 -2.93847489 101.28439321 1.1081543 101.25878906 C1.94735916 101.25737411 2.78656403 101.25595917 3.65119934 101.25450134 C6.33089771 101.24890497 9.01051244 101.23635316 11.69018555 101.22363281 C13.50724163 101.21861734 15.32429903 101.21405452 17.14135742 101.20996094 C21.59516567 101.19893672 26.04891143 101.18167459 30.50268555 101.16113281 C30.57914848 93.93870881 30.63145804 86.71639035 30.66748047 79.49365234 C30.68250779 77.03983662 30.70293535 74.58604748 30.72900391 72.13232422 C30.76565375 68.59238089 30.78247309 65.05279467 30.7956543 61.51269531 C30.81113815 60.42687164 30.82662201 59.34104797 30.84257507 58.22232056 C30.84469423 48.49296355 29.4528801 39.9979268 22.4909668 32.84863281 C13.36163 25.10035483 0.15715167 25.10848254 -11.27563477 25.14257812 C-13.02520477 25.14659637 -13.02520477 25.14659637 -14.81011963 25.1506958 C-15.69689392 25.15414001 -16.58366821 25.15758423 -17.49731445 25.16113281 Z " fill="#A5C312" transform="translate(1364.497314453125,298.8388671875)"/>
<path d="M0 0 C0.92343201 -0.00335861 1.84686401 -0.00671722 2.79827881 -0.01017761 C5.83005143 -0.01961925 8.86176831 -0.02162797 11.89355469 -0.02270508 C14.02756777 -0.02592473 16.16158063 -0.02928931 18.29559326 -0.03279114 C22.76737986 -0.03876721 27.23914719 -0.04063284 31.7109375 -0.04003906 C37.38205735 -0.03993807 43.05305022 -0.05353137 48.72414017 -0.07081127 C53.1359715 -0.08205383 57.54777344 -0.08395448 61.95961761 -0.08342934 C64.04674462 -0.08459337 66.1338728 -0.088924 68.22098541 -0.0967617 C104.65801984 -0.22067973 140.88618608 3.62937837 168.44042969 29.89526367 C190.41322248 52.47935518 194.71931639 85.11250013 194.54785156 115.2331543 C194.11699178 142.17050763 189.59834392 171.81121313 170.31542969 192.14526367 C169.19394531 193.40016602 169.19394531 193.40016602 168.04980469 194.68041992 C148.0275506 216.09131421 116.59156235 222.9340605 88.31542969 224.14526367 C80.52942164 224.32082105 72.73954141 224.26206543 64.95214844 224.24291992 C62.70628389 224.24105156 60.46041893 224.23962963 58.21455383 224.2386322 C52.34403327 224.23483994 46.47353801 224.22503827 40.60302734 224.21392822 C34.59635765 224.20364283 28.5896838 224.1991194 22.58300781 224.1940918 C10.82713741 224.18341262 -0.92871434 224.16637639 -12.68457031 224.14526367 C-12.68180493 224.70479988 -12.67903955 225.26433609 -12.67619038 225.84082794 C-12.6098268 239.47966021 -12.56043114 253.11846405 -12.5291338 266.7574234 C-12.5134889 273.35323612 -12.49227171 279.94893216 -12.45825195 286.54467773 C-12.42561716 292.91187179 -12.40770845 299.27895372 -12.39993858 305.64622498 C-12.39440252 308.0734585 -12.38359197 310.50068601 -12.36738014 312.9278717 C-12.34555163 316.33185002 -12.34260573 319.73536706 -12.34399414 323.1394043 C-12.33320831 324.13922333 -12.32242249 325.13904236 -12.31130981 326.16915894 C-12.3417969 333.09274175 -13.13069592 338.9103561 -17.55957031 344.52026367 C-23.53190634 349.08734417 -29.93836325 348.47837098 -37.12207031 348.45776367 C-38.24162109 348.47387695 -39.36117188 348.48999023 -40.51464844 348.5065918 C-47.64066622 348.51082089 -52.61678896 348.12782887 -57.93457031 342.95776367 C-62.20339274 336.0971562 -61.9718413 328.5544139 -61.9385376 320.73020935 C-61.94165758 319.59872988 -61.94477756 318.46725042 -61.94799209 317.30148369 C-61.95595336 313.51945788 -61.94965549 309.73759335 -61.94335938 305.95556641 C-61.94497019 303.23983936 -61.94955951 300.52411911 -61.95397949 297.80839539 C-61.9628617 291.20169556 -61.96095612 284.59504125 -61.95515421 277.98833966 C-61.95063044 272.61346454 -61.95002792 267.23860214 -61.95220184 261.86372566 C-61.95250831 261.09759 -61.95281478 260.33145434 -61.95313053 259.54210244 C-61.95377002 257.98543468 -61.95441844 256.42876692 -61.95507571 254.87209917 C-61.96077627 240.2805812 -61.95422682 225.68908838 -61.94347498 211.09757454 C-61.93455224 198.6023092 -61.93608149 186.10708106 -61.9453125 173.61181641 C-61.95604163 159.08200136 -61.96021381 144.5522084 -61.95408797 130.02238995 C-61.95345092 128.46943065 -61.95282218 126.91647135 -61.95220184 125.36351204 C-61.95189329 124.59955997 -61.95158474 123.8356079 -61.95126684 123.04850576 C-61.94954687 117.68938474 -61.95244014 112.33027782 -61.95716095 106.97115898 C-61.96279976 100.42624715 -61.9611913 93.88138322 -61.95059946 87.3364768 C-61.94538085 84.00295411 -61.94431576 80.66957619 -61.94989777 77.33604431 C-62.02087926 30.61812316 -62.02087926 30.61812316 -47.64941406 14.92260742 C-34.44164545 2.46025079 -17.49514254 -0.0093165 0 0 Z M-10.68457031 54.14526367 C-13.2853641 59.83777724 -12.95235886 65.52946764 -12.91162109 71.65844727 C-12.91191315 72.81024475 -12.9122052 73.96204224 -12.9125061 75.14874268 C-12.91111532 78.94713941 -12.89556562 82.7453388 -12.87988281 86.54370117 C-12.8761518 89.18071383 -12.87330524 91.81772789 -12.87130737 94.45474243 C-12.86510123 100.68070353 -12.84870219 106.90659405 -12.82860839 113.13252413 C-12.80622239 120.22320764 -12.79524918 127.3138946 -12.78521752 134.40460467 C-12.76433515 148.98486068 -12.72917606 163.56506119 -12.68457031 178.14526367 C0.99013255 178.21507241 14.66479234 178.26823087 28.33963776 178.30070019 C34.69084512 178.31629142 41.04192969 178.3374091 47.39306641 178.37158203 C53.53336274 178.40441011 59.67354168 178.42216576 65.81391907 178.4298954 C68.14522649 178.43539709 70.4765282 178.4461393 72.80778503 178.46245384 C94.38035472 178.60728528 115.52760677 177.91216994 132.18261719 162.40698242 C144.04564087 150.11118748 145.8603634 131.47073668 145.70654297 115.16577148 C145.69042941 113.14522886 145.70652477 111.12668493 145.72558594 109.10620117 C145.7530671 91.72942981 142.45689444 74.11864545 130.31542969 60.98120117 C113.84832877 45.27864422 90.10944967 45.98599503 68.80761719 45.94213867 C67.87797276 45.93931129 66.94832832 45.93648392 65.99051285 45.93357086 C61.07944715 45.918659 56.16841028 45.90937662 51.25732422 45.9050293 C46.20255973 45.89952834 41.14806236 45.87544328 36.09338188 45.84705734 C32.18648508 45.8283979 28.27965259 45.8232238 24.372715 45.82169342 C22.50928396 45.81867844 20.64585375 45.81068918 18.78246689 45.79750824 C16.1745958 45.78036336 13.56737796 45.78234737 10.95947266 45.78881836 C10.1997818 45.77960358 9.44009094 45.77038879 8.65737915 45.76089478 C0.88847464 45.82097314 -5.68849356 47.82669601 -10.68457031 54.14526367 Z " fill="#A5C312" transform="translate(376.6845703125,322.854736328125)"/>
<path d="M0 0 C12.86202166 9.43722299 15.25029231 34.53325031 19.113446 48.89025211 C20.0337883 52.30653613 20.95939521 55.72139363 21.88441467 59.13641357 C23.64533262 65.64035573 25.40198015 72.14544264 27.15689999 78.65100551 C29.10083109 85.8567759 31.04832861 93.06157986 32.996701 100.26615047 C33.57204056 102.39369897 34.14724817 104.5212831 34.7224369 106.64887238 C36.62159001 113.67298307 38.52279968 120.69652979 40.42758179 127.71911621 C40.98984434 129.79252572 41.55206611 131.86594628 42.11424756 133.93937778 C42.4846402 135.30540821 42.85509133 136.67142278 43.22560191 138.03742123 C45.51644309 146.48529314 47.78673539 154.93818531 50.03261852 163.39813614 C51.28375485 168.1033363 52.54633081 172.80542052 53.81106758 177.5069809 C54.38722238 179.66011621 54.95813615 181.81466248 55.52317619 183.97074127 C60.22565089 204.84420405 60.22565089 204.84420405 73 221 C80.17020651 224.08417102 89.05303812 224.31918983 96.578125 222.3125 C103.80606346 219.00199384 107.1136316 213.42968451 109.88650513 206.30743408 C112.40107943 198.83834828 114.07571584 191.12077976 115.90234375 183.4609375 C116.37696486 181.49453536 116.85222125 179.52828646 117.32806396 177.56217957 C118.34357502 173.35974602 119.35425434 169.15619055 120.36117554 164.95169067 C121.94789581 158.326418 123.5464539 151.70403267 125.14575195 145.08178711 C130.26430041 123.86756313 135.33277386 102.64176468 140.34420586 81.40198517 C141.07072813 78.32430323 141.79844866 75.2469073 142.52662659 72.1696167 C142.99960332 70.17053224 143.47258 68.17144776 143.94555664 66.17236328 C144.29061296 64.71427876 144.29061296 64.71427876 144.64264011 63.22673798 C145.99395657 57.51175888 147.33499291 51.79448715 148.66822243 46.07526302 C149.49772724 42.52559921 150.33551933 38.97792672 151.17533112 35.43068886 C151.55818614 33.80542548 151.93750301 32.17932342 152.31279755 30.55229759 C158.06287603 5.64130517 158.06287603 5.64130517 166 0 C173.97201269 -4.88607229 186.98589776 -4.06361236 196.00390625 -2.46875 C200.37737364 -1.14302018 202.53112256 0.04130623 205 4 C207.39200344 16.63249914 202.42346753 30.23104211 199.34375 42.34130859 C198.73466332 44.78681569 198.12700019 47.2326777 197.52064514 49.67886353 C196.04659949 55.6091597 194.55739353 61.53546462 193.06084985 67.46011762 C191.31202924 74.38614774 189.58046627 81.31645743 187.84938395 88.24693818 C184.75420884 100.6360038 181.64302412 113.02099272 178.52294922 125.40380859 C175.50947529 137.36359242 172.50809827 149.32632618 169.52001953 161.29248047 C165.73092407 176.46629778 161.93095871 191.63735267 158.1222018 206.80624663 C156.91624541 211.6104356 155.71404856 216.41555591 154.51318359 221.22101974 C152.88740902 227.72581349 151.25106104 234.22786838 149.60815239 240.72835922 C149.01166628 243.0943951 148.41821777 245.46119953 147.82829475 247.82888031 C142.89438327 267.6166481 137.73231741 287.86708546 128.5625 306.1875 C128.09714844 307.13471924 127.63179687 308.08193848 127.15234375 309.05786133 C115.55412583 332.16517151 97.7691769 351.11162003 72.75390625 359.47265625 C68.53986238 360.80080142 64.29005982 361.94572787 60 363 C58.99582031 363.2475 57.99164062 363.495 56.95703125 363.75 C50.55191485 365.05089811 44.14039669 365.22498588 37.625 365.3125 C36.76801514 365.33030518 35.91103027 365.34811035 35.02807617 365.36645508 C29.94512959 365.35997364 26.37269246 364.87694866 22 362 C16.40296544 354.32406689 13.72581555 343.46742782 14 334 C14.79750668 330.50019795 16.08678679 327.8314981 18.78710938 325.37280273 C21.34379382 323.78672191 23.24662623 323.38635943 26.21875 322.97265625 C27.22776367 322.82272217 28.23677734 322.67278809 29.27636719 322.51831055 C30.34016602 322.36789307 31.40396484 322.21747559 32.5 322.0625 C50.71473881 319.22876618 66.60183212 314.49638555 78 299 C84.19855322 289.82985572 93 275.35909331 93 264 C92.37996094 264.144375 91.75992188 264.28875 91.12109375 264.4375 C73.75531098 268.0774894 56.24116221 266.48773203 41 257 C18.7214558 241.63425167 13.80017386 210.03592874 7.23373032 185.67291641 C6.08785159 181.42998261 4.9307742 177.19010469 3.7746582 172.94995117 C2.24735049 167.34537387 0.72149386 161.74041129 -0.79969788 156.13417053 C-5.16429692 140.04942042 -9.56281195 123.97405441 -13.97010398 107.90096354 C-14.88895108 104.54968956 -15.80743713 101.19831664 -16.72590637 97.84693909 C-16.90763887 97.18382573 -17.08937137 96.52071238 -17.27661091 95.83750468 C-17.82707452 93.82892777 -18.3775283 91.82034816 -18.92797852 89.81176758 C-19.10940796 89.14973898 -19.29083741 88.48771038 -19.47776473 87.80562031 C-20.39150418 84.47141326 -21.30522506 81.13720112 -22.21892166 77.80298233 C-22.94927544 75.13783689 -23.679719 72.47271607 -24.41022873 69.80761337 C-26.50934136 62.14914833 -28.60666855 54.49019845 -30.70145035 46.83054733 C-31.3462967 44.47374204 -31.99175223 42.11710334 -32.63784409 39.76063919 C-33.52618566 36.52030234 -34.41240877 33.27939337 -35.2980957 30.03833008 C-35.55920859 29.08778338 -35.82032148 28.13723669 -36.08934689 27.15788555 C-36.32813344 26.28233926 -36.56691999 25.40679296 -36.8129425 24.50471497 C-37.12266731 23.37328929 -37.12266731 23.37328929 -37.43864918 22.21900654 C-39.12919414 15.53632226 -40.19721071 8.75126024 -38.0625 2.0625 C-29.90674663 -6.09325337 -9.58207082 -5.26923669 0 0 Z " fill="#A5C312" transform="translate(838,410)"/>
<path d="M0 0 C1.02127991 -0.00570007 2.04255981 -0.01140015 3.0947876 -0.01727295 C5.24954208 -0.02666695 7.40431056 -0.03323447 9.55908203 -0.03710938 C12.77794138 -0.04672509 15.99613611 -0.07776578 19.21484375 -0.109375 C48.33130423 -0.25849381 81.29127539 3.07641422 104.078125 23.203125 C105.08875 23.945625 106.099375 24.688125 107.140625 25.453125 C120.86343606 37.1232164 127.58605388 56.75172496 129.078125 74.203125 C129.22665076 78.33270111 129.23521116 82.4595943 129.23925781 86.59155273 C129.24422272 87.813871 129.24918762 89.03618927 129.25430298 90.29554749 C129.26635449 93.63083555 129.27385545 96.96606137 129.27831364 100.30136371 C129.28126036 102.39407344 129.28536818 104.4867779 129.28981781 106.57948494 C129.3034737 113.15277815 129.31314799 119.72605906 129.3170197 126.29936546 C129.32148698 133.83869196 129.33898076 141.37783596 129.3680203 148.91710705 C129.38978733 154.77566331 129.39973201 160.63416882 129.40106082 166.49276501 C129.40209877 169.97696775 129.40778626 173.46099854 129.42588043 176.945158 C129.52080811 196.35026154 129.28957727 214.23135371 121.078125 232.203125 C120.70945312 233.01136719 120.34078125 233.81960938 119.9609375 234.65234375 C116.71632365 241.06325318 112.08394619 246.10381649 107.078125 251.203125 C106.47355469 251.8321875 105.86898437 252.46125 105.24609375 253.109375 C83.22823582 274.21581833 46.41058779 276.42791791 17.703125 276.453125 C16.65631058 276.45413712 16.65631058 276.45413712 15.58834839 276.45516968 C-12.73326314 276.41198111 -42.25424368 272.01813357 -63.921875 252.203125 C-64.55351563 251.65140625 -65.18515625 251.0996875 -65.8359375 250.53125 C-80.44011351 237.0207788 -86.23884773 216.51040097 -87.046875 197.21875 C-87.44831859 176.64476624 -83.07509542 156.7410299 -69.48828125 140.87109375 C-48.10477917 118.6413648 -14.33666969 113.75845576 15.0655365 113.11599731 C19.36927596 113.07663278 23.67273333 113.09015646 27.9765625 113.10546875 C29.54839024 113.10733965 31.12021858 113.10876037 32.69204712 113.10975647 C36.7788257 113.1135288 40.86556732 113.12331226 44.95233154 113.13446045 C49.14269511 113.14478985 53.3330648 113.14927849 57.5234375 113.15429688 C65.70835008 113.16494068 73.89323291 113.18195146 82.078125 113.203125 C82.00845471 108.43783124 81.9201243 103.67334995 81.81567383 98.90869141 C81.78274773 97.29322449 81.7546192 95.67765144 81.73168945 94.06201172 C81.52525402 79.89263522 81.08268864 66.0263887 70.33203125 55.4921875 C48.80935851 37.86238904 12.71526865 41.55613102 -13.26245117 44.13134766 C-21.59646296 45.07067702 -29.82808233 46.28572944 -38.046875 47.953125 C-43.80277283 49.10064228 -48.20818632 49.70179744 -53.921875 48.203125 C-57.70450282 45.30579305 -59.54381817 42.71203024 -60.921875 38.203125 C-61.23217527 35.07429468 -61.24653528 31.97034107 -61.234375 28.828125 C-61.25048828 28.003125 -61.26660156 27.178125 -61.28320312 26.328125 C-61.28833188 19.86589046 -60.40886405 14.76117088 -55.734375 9.953125 C-48.68132418 5.56456005 -41.12811644 4.33924258 -33.046875 3.078125 C-32.02207031 2.90925781 -30.99726562 2.74039062 -29.94140625 2.56640625 C-19.94053323 0.95254237 -10.13155566 0.04526751 0 0 Z M-32.63671875 168.09375 C-38.86852895 176.32156787 -41.14738103 188.00759564 -39.921875 198.203125 C-38.28271462 209.11720121 -34.78676911 217.90647081 -25.94140625 224.86328125 C-12.87352779 233.53307296 2.39388518 234.706114 17.640625 234.515625 C18.93419922 234.51884766 20.22777344 234.52207031 21.56054688 234.52539062 C39.17624308 234.42826147 58.32561063 232.48657508 72.109375 220.42578125 C81.08808724 211.12368319 82.24252042 199.10097547 82.17578125 186.7734375 C82.1743663 185.78310516 82.17295135 184.79277283 82.17149353 183.77243042 C82.16591752 180.62429727 82.15336942 177.47623648 82.140625 174.328125 C82.1356069 172.18750103 82.13104454 170.04687594 82.12695312 167.90625 C82.11595594 162.67185051 82.09924175 157.43749293 82.078125 152.203125 C72.61024992 152.13301497 63.14246684 152.08000878 53.67438698 152.04768848 C49.27599415 152.03216124 44.87778142 152.01116586 40.47949219 151.97680664 C36.21949927 151.94374344 31.95967741 151.92617529 27.69956589 151.91849327 C26.09000334 151.91303259 24.48044808 151.9023753 22.87096024 151.88593483 C3.65353998 151.69779099 -18.84465996 152.88792664 -32.63671875 168.09375 Z " fill="#A5C312" transform="translate(654.921875,399.796875)"/>
<path d="M0 0 C1.16148056 -0.00945648 2.32296112 -0.01891296 3.51963806 -0.02865601 C4.76556229 -0.02258331 6.01148651 -0.01651062 7.29516602 -0.01025391 C8.58342789 -0.01312408 9.87168976 -0.01599426 11.19898987 -0.01895142 C13.92166983 -0.02336517 16.64405377 -0.01697587 19.36669922 -0.00292969 C22.84467669 0.01414513 26.32195868 0.00432665 29.79991055 -0.01364708 C33.13171701 -0.02714021 36.46333984 -0.01767153 39.79516602 -0.01025391 C41.03906601 -0.0163266 42.282966 -0.02239929 43.56455994 -0.02865601 C54.52244188 0.06031884 54.52244188 0.06031884 59.11157227 3.38818359 C61.45392962 6.90171962 61.37366372 8.36469768 61.40209961 12.52441406 C61.41485931 13.78937714 61.42761902 15.05434021 61.44076538 16.3576355 C61.44382302 17.74021248 61.44605079 19.1227915 61.44750977 20.50537109 C61.45393744 21.92400243 61.46066578 23.34263244 61.46768188 24.76126099 C61.47965744 27.73540316 61.48336248 30.70942917 61.48217773 33.68359375 C61.48197462 37.48912793 61.50926644 41.29391465 61.54372215 45.09927177 C61.56599431 48.02987061 61.57001518 50.96028971 61.56895828 53.89096451 C61.57131418 55.29356587 61.5801372 56.69617219 61.59562302 58.09869003 C61.6152836 60.06341643 61.60692225 62.02836231 61.59741211 63.99316406 C61.60026215 65.10996552 61.60311218 66.22676697 61.60604858 67.37741089 C60.99977926 71.06887007 59.68839191 72.72749352 57.11157227 75.38818359 C54.42103877 76.73345034 52.30094949 76.54514397 49.28833008 76.58105469 C47.45567596 76.60514908 47.45567596 76.60514908 45.58599854 76.62973022 C44.24557186 76.64121859 42.90513739 76.65182698 41.56469727 76.66162109 C40.55265354 76.66960661 40.55265354 76.66960661 39.52016449 76.67775345 C35.94712968 76.70448204 32.37412973 76.72385546 28.80102539 76.73828125 C25.84823538 76.75160773 22.89613857 76.77943452 19.94360352 76.8203125 C16.37504997 76.86971777 12.80712403 76.89441188 9.2382431 76.90150833 C7.22299278 76.91145673 5.2079094 76.9456834 3.19293213 76.98031616 C-7.01446395 76.95674846 -7.01446395 76.95674846 -10.70581055 73.98046875 C-13.8552722 70.23986654 -14.0186314 68.46114022 -14.04956055 63.64086914 C-14.05916809 62.43589279 -14.06877563 61.23091644 -14.07867432 59.98942566 C-14.08292419 58.68113297 -14.08717407 57.37284027 -14.09155273 56.02490234 C-14.09730519 54.67210386 -14.10306291 53.3193054 -14.10882568 51.96650696 C-14.11933625 49.12765116 -14.12517822 46.28882369 -14.12866211 43.44995117 C-14.13414034 39.81828723 -14.15815325 36.18699944 -14.18663406 32.5554533 C-14.20529227 29.75955629 -14.21046777 26.96374919 -14.21199799 24.16779518 C-14.21648537 22.17974634 -14.2351187 20.19174568 -14.25396729 18.20378113 C-14.25096619 16.9893483 -14.24796509 15.77491547 -14.24487305 14.52368164 C-14.24851868 13.45715866 -14.25216431 12.39063568 -14.25592041 11.29179382 C-13.82340309 7.87441496 -12.99802331 6.10325129 -10.88842773 3.38818359 C-7.2406097 0.57583442 -4.55635559 0.01067299 0 0 Z " fill="#A5C312" transform="translate(1459.888427734375,223.61181640625)"/>
<path d="M0 0 C1.20661537 -0.02398109 1.20661537 -0.02398109 2.43760681 -0.04844666 C3.29810135 -0.05380936 4.15859589 -0.05917206 5.04516602 -0.06469727 C6.38394554 -0.07823997 6.38394554 -0.07823997 7.74977112 -0.09205627 C9.63506726 -0.1065458 11.52041353 -0.11544229 13.40576172 -0.11914062 C16.28577431 -0.13104853 19.16365156 -0.18025473 22.04321289 -0.23071289 C23.87718683 -0.24017633 25.7111739 -0.24741174 27.54516602 -0.25219727 C28.83287148 -0.28149574 28.83287148 -0.28149574 30.14659119 -0.31138611 C34.24964367 -0.28050647 36.37008539 -0.00456833 39.90454102 2.23168945 C42.65383709 6.55112992 42.56433112 10.03465136 42.49047852 15.06030273 C42.49289047 15.99817123 42.49530243 16.93603973 42.49778748 17.90232849 C42.49681013 19.88007853 42.48344335 21.85785629 42.45849609 23.83544922 C42.42414467 26.86251638 42.43785326 29.8866703 42.45727539 32.91381836 C42.4503779 34.83765891 42.44070639 36.76149193 42.42797852 38.68530273 C42.43293839 39.58954483 42.43789825 40.49378693 42.44300842 41.4254303 C42.37377733 45.11708751 42.2439564 47.61999578 40.4296875 50.87670898 C36.44550943 53.09472845 32.69293385 52.85804995 28.20532227 52.80249023 C27.26603882 52.80394547 26.32675537 52.8054007 25.35900879 52.80690002 C23.37529393 52.80524178 21.39156612 52.79368883 19.40795898 52.77294922 C16.37240931 52.74399983 13.33860679 52.7523408 10.30297852 52.76538086 C8.37458461 52.75914312 6.44619623 52.7507519 4.51782227 52.73999023 C3.61044312 52.74292587 2.70306396 52.74586151 1.76818848 52.74888611 C-4.47633268 52.65544679 -4.47633268 52.65544679 -7.67944336 50.96679688 C-11.00947058 47.17705204 -10.29996862 42.40544285 -10.30639648 37.65795898 C-10.30972488 36.80841644 -10.31305328 35.9588739 -10.31648254 35.08358765 C-10.32154431 33.28644349 -10.3238911 31.48928995 -10.32373047 29.69213867 C-10.32591387 26.94881611 -10.34406887 24.20589774 -10.36303711 21.46264648 C-10.36597184 19.71525202 -10.3679561 17.96785566 -10.36889648 16.22045898 C-10.376082 15.40259918 -10.38326752 14.58473938 -10.39067078 13.74209595 C-10.37396964 9.55817493 -10.34489242 5.99909671 -8.13842773 2.30639648 C-5.36327103 0.61238711 -3.23021474 0.04879185 0 0 Z " fill="#A5C312" transform="translate(1405.138427734375,172.693603515625)"/>
</svg>
